<?xml version="1.0" encoding="utf-8" standalone="no"?>
<!DOCTYPE svg PUBLIC "-//W3C//DTD SVG 1.1//EN"
  "http://www.w3.org/Graphics/SVG/1.1/DTD/svg11.dtd">
<svg height="166.764814pt" version="1.1" viewBox="0 0 379.705281 166.764814" width="379.705281pt" xmlns="http://www.w3.org/2000/svg" xmlns:xlink="http://www.w3.org/1999/xlink">
 <metadata>
  <rdf:RDF xmlns:cc="http://creativecommons.org/ns#" xmlns:dc="http://purl.org/dc/elements/1.1/" xmlns:rdf="http://www.w3.org/1999/02/22-rdf-syntax-ns#">
   <cc:Work>
    <dc:type rdf:resource="http://purl.org/dc/dcmitype/StillImage"/>
    <dc:date>2022-06-15T17:59:18.958584</dc:date>
    <dc:format>image/svg+xml</dc:format>
    <dc:creator>
     <cc:Agent>
      <dc:title>Matplotlib v3.4.2, https://matplotlib.org/</dc:title>
     </cc:Agent>
    </dc:creator>
   </cc:Work>
  </rdf:RDF>
 </metadata>
 <defs>
  <style type="text/css">*{stroke-linecap:butt;stroke-linejoin:round;}</style>
 </defs>
 <g id="figure_1">
  <g id="patch_1">
   <path d="M 0 166.764814 
L 379.705281 166.764814 
L 379.705281 0 
L 0 0 
z
" style="fill:none;"/>
  </g>
  <g id="axes_1">
   <g id="patch_2">
    <path d="M 129.96 36.038125 
L 86.333803 57.047394 
L 75.559023 104.254793 
L 105.749287 142.112188 
L 154.170713 142.112188 
L 184.360977 104.254793 
L 173.586197 57.047394 
z
" style="fill:#ffffff;"/>
   </g>
   <g id="patch_3">
    <path clip-path="url(#p2ae4ff834e)" d="M 129.96 80.079939 
L 140.218855 83.656961 
L 159.153595 98.501373 
L 144.193761 121.394835 
L 113.523474 125.968924 
L 85.786539 101.920429 
L 92.981955 62.349118 
z
" style="fill:#ff0000;opacity:0.01;stroke:#ff0000;stroke-linejoin:miter;"/>
   </g>
   <g id="patch_4">
    <path clip-path="url(#p2ae4ff834e)" d="M 129.96 80.557363 
L 139.40128 84.308955 
L 158.350683 98.318113 
L 145.598972 124.312785 
L 113.980611 125.019669 
L 89.583493 101.053799 
L 94.912446 63.888633 
z
" style="fill:#ff0000;opacity:0.01;stroke:#ff0000;stroke-linejoin:miter;"/>
   </g>
   <g id="patch_5">
    <path clip-path="url(#p2ae4ff834e)" d="M 129.96 81.431718 
L 141.193623 82.879609 
L 159.410088 98.559915 
L 145.158555 123.398251 
L 113.704198 125.593645 
L 85.006987 102.098357 
L 95.378272 64.260117 
z
" style="fill:#ff0000;opacity:0.01;stroke:#ff0000;stroke-linejoin:miter;"/>
   </g>
   <g id="matplotlib.axis_1">
    <g id="xtick_1">
     <g id="line2d_1">
      <path clip-path="url(#p2ae4ff834e)" d="M 129.96 91.838125 
L 129.96 83.866696 
L 129.96 75.895268 
L 129.96 67.923839 
L 129.96 59.952411 
L 129.96 51.980982 
L 129.96 44.009554 
L 129.96 36.038125 
" style="fill:none;stroke:#b0b0b0;stroke-linecap:square;stroke-width:0.8;"/>
     </g>
     <g id="text_1">
      <!-- tT -->
      <g transform="translate(124.945937 24.7975)scale(0.1 -0.1)">
       <defs>
        <path d="M 1172 4494 
L 1172 3500 
L 2356 3500 
L 2356 3053 
L 1172 3053 
L 1172 1153 
Q 1172 725 1289 603 
Q 1406 481 1766 481 
L 2356 481 
L 2356 0 
L 1766 0 
Q 1100 0 847 248 
Q 594 497 594 1153 
L 594 3053 
L 172 3053 
L 172 3500 
L 594 3500 
L 594 4494 
L 1172 4494 
z
" id="DejaVuSans-74" transform="scale(0.015625)"/>
        <path d="M -19 4666 
L 3928 4666 
L 3928 4134 
L 2272 4134 
L 2272 0 
L 1638 0 
L 1638 4134 
L -19 4134 
L -19 4666 
z
" id="DejaVuSans-54" transform="scale(0.015625)"/>
       </defs>
       <use xlink:href="#DejaVuSans-74"/>
       <use x="39.208984" xlink:href="#DejaVuSans-54"/>
      </g>
     </g>
    </g>
    <g id="xtick_2">
     <g id="line2d_2">
      <path clip-path="url(#p2ae4ff834e)" d="M 129.96 91.838125 
L 136.192314 86.868021 
L 142.424628 81.897916 
L 148.656941 76.927812 
L 154.889255 71.957707 
L 161.121569 66.987603 
L 167.353883 62.017498 
L 173.586197 57.047394 
" style="fill:none;stroke:#b0b0b0;stroke-linecap:square;stroke-width:0.8;"/>
     </g>
     <g id="text_2">
      <!-- S -->
      <g transform="translate(181.357619 51.077912)scale(0.1 -0.1)">
       <defs>
        <path d="M 3425 4513 
L 3425 3897 
Q 3066 4069 2747 4153 
Q 2428 4238 2131 4238 
Q 1616 4238 1336 4038 
Q 1056 3838 1056 3469 
Q 1056 3159 1242 3001 
Q 1428 2844 1947 2747 
L 2328 2669 
Q 3034 2534 3370 2195 
Q 3706 1856 3706 1288 
Q 3706 609 3251 259 
Q 2797 -91 1919 -91 
Q 1588 -91 1214 -16 
Q 841 59 441 206 
L 441 856 
Q 825 641 1194 531 
Q 1563 422 1919 422 
Q 2459 422 2753 634 
Q 3047 847 3047 1241 
Q 3047 1584 2836 1778 
Q 2625 1972 2144 2069 
L 1759 2144 
Q 1053 2284 737 2584 
Q 422 2884 422 3419 
Q 422 4038 858 4394 
Q 1294 4750 2059 4750 
Q 2388 4750 2728 4690 
Q 3069 4631 3425 4513 
z
" id="DejaVuSans-53" transform="scale(0.015625)"/>
       </defs>
       <use xlink:href="#DejaVuSans-53"/>
      </g>
     </g>
    </g>
    <g id="xtick_3">
     <g id="line2d_3">
      <path clip-path="url(#p2ae4ff834e)" d="M 129.96 91.838125 
L 137.731568 93.611935 
L 145.503136 95.385744 
L 153.274705 97.159554 
L 161.046273 98.933364 
L 168.817841 100.707174 
L 176.589409 102.480983 
L 184.360977 104.254793 
" style="fill:none;stroke:#b0b0b0;stroke-linecap:square;stroke-width:0.8;"/>
     </g>
     <g id="text_3">
      <!-- EQ -->
      <g transform="translate(190.914656 110.129461)scale(0.1 -0.1)">
       <defs>
        <path d="M 628 4666 
L 3578 4666 
L 3578 4134 
L 1259 4134 
L 1259 2753 
L 3481 2753 
L 3481 2222 
L 1259 2222 
L 1259 531 
L 3634 531 
L 3634 0 
L 628 0 
L 628 4666 
z
" id="DejaVuSans-45" transform="scale(0.015625)"/>
        <path d="M 2522 4238 
Q 1834 4238 1429 3725 
Q 1025 3213 1025 2328 
Q 1025 1447 1429 934 
Q 1834 422 2522 422 
Q 3209 422 3611 934 
Q 4013 1447 4013 2328 
Q 4013 3213 3611 3725 
Q 3209 4238 2522 4238 
z
M 3406 84 
L 4238 -825 
L 3475 -825 
L 2784 -78 
Q 2681 -84 2626 -87 
Q 2572 -91 2522 -91 
Q 1538 -91 948 567 
Q 359 1225 359 2328 
Q 359 3434 948 4092 
Q 1538 4750 2522 4750 
Q 3503 4750 4090 4092 
Q 4678 3434 4678 2328 
Q 4678 1516 4351 937 
Q 4025 359 3406 84 
z
" id="DejaVuSans-51" transform="scale(0.015625)"/>
       </defs>
       <use xlink:href="#DejaVuSans-45"/>
       <use x="63.183594" xlink:href="#DejaVuSans-51"/>
      </g>
     </g>
    </g>
    <g id="xtick_4">
     <g id="line2d_4">
      <path clip-path="url(#p2ae4ff834e)" d="M 129.96 91.838125 
L 133.418673 99.020134 
L 136.877346 106.202143 
L 140.33602 113.384152 
L 143.794693 120.566161 
L 147.253366 127.74817 
L 150.712039 134.930179 
L 154.170713 142.112188 
" style="fill:none;stroke:#b0b0b0;stroke-linecap:square;stroke-width:0.8;"/>
     </g>
     <g id="text_4">
      <!-- Sub -->
      <g transform="translate(150.727897 157.485127)scale(0.1 -0.1)">
       <defs>
        <path d="M 544 1381 
L 544 3500 
L 1119 3500 
L 1119 1403 
Q 1119 906 1312 657 
Q 1506 409 1894 409 
Q 2359 409 2629 706 
Q 2900 1003 2900 1516 
L 2900 3500 
L 3475 3500 
L 3475 0 
L 2900 0 
L 2900 538 
Q 2691 219 2414 64 
Q 2138 -91 1772 -91 
Q 1169 -91 856 284 
Q 544 659 544 1381 
z
M 1991 3584 
L 1991 3584 
z
" id="DejaVuSans-75" transform="scale(0.015625)"/>
        <path d="M 3116 1747 
Q 3116 2381 2855 2742 
Q 2594 3103 2138 3103 
Q 1681 3103 1420 2742 
Q 1159 2381 1159 1747 
Q 1159 1113 1420 752 
Q 1681 391 2138 391 
Q 2594 391 2855 752 
Q 3116 1113 3116 1747 
z
M 1159 2969 
Q 1341 3281 1617 3432 
Q 1894 3584 2278 3584 
Q 2916 3584 3314 3078 
Q 3713 2572 3713 1747 
Q 3713 922 3314 415 
Q 2916 -91 2278 -91 
Q 1894 -91 1617 61 
Q 1341 213 1159 525 
L 1159 0 
L 581 0 
L 581 4863 
L 1159 4863 
L 1159 2969 
z
" id="DejaVuSans-62" transform="scale(0.015625)"/>
       </defs>
       <use xlink:href="#DejaVuSans-53"/>
       <use x="63.476562" xlink:href="#DejaVuSans-75"/>
       <use x="126.855469" xlink:href="#DejaVuSans-62"/>
      </g>
     </g>
    </g>
    <g id="xtick_5">
     <g id="line2d_5">
      <path clip-path="url(#p2ae4ff834e)" d="M 129.96 91.838125 
L 126.501327 99.020134 
L 123.042654 106.202143 
L 119.58398 113.384152 
L 116.125307 120.566161 
L 112.666634 127.74817 
L 109.207961 134.930179 
L 105.749287 142.112188 
" style="fill:none;stroke:#b0b0b0;stroke-linecap:square;stroke-width:0.8;"/>
     </g>
     <g id="text_5">
      <!-- CP -->
      <g transform="translate(93.168665 157.485127)scale(0.1 -0.1)">
       <defs>
        <path d="M 4122 4306 
L 4122 3641 
Q 3803 3938 3442 4084 
Q 3081 4231 2675 4231 
Q 1875 4231 1450 3742 
Q 1025 3253 1025 2328 
Q 1025 1406 1450 917 
Q 1875 428 2675 428 
Q 3081 428 3442 575 
Q 3803 722 4122 1019 
L 4122 359 
Q 3791 134 3420 21 
Q 3050 -91 2638 -91 
Q 1578 -91 968 557 
Q 359 1206 359 2328 
Q 359 3453 968 4101 
Q 1578 4750 2638 4750 
Q 3056 4750 3426 4639 
Q 3797 4528 4122 4306 
z
" id="DejaVuSans-43" transform="scale(0.015625)"/>
        <path d="M 1259 4147 
L 1259 2394 
L 2053 2394 
Q 2494 2394 2734 2622 
Q 2975 2850 2975 3272 
Q 2975 3691 2734 3919 
Q 2494 4147 2053 4147 
L 1259 4147 
z
M 628 4666 
L 2053 4666 
Q 2838 4666 3239 4311 
Q 3641 3956 3641 3272 
Q 3641 2581 3239 2228 
Q 2838 1875 2053 1875 
L 1259 1875 
L 1259 0 
L 628 0 
L 628 4666 
z
" id="DejaVuSans-50" transform="scale(0.015625)"/>
       </defs>
       <use xlink:href="#DejaVuSans-43"/>
       <use x="69.824219" xlink:href="#DejaVuSans-50"/>
      </g>
     </g>
    </g>
    <g id="xtick_6">
     <g id="line2d_6">
      <path clip-path="url(#p2ae4ff834e)" d="M 129.96 91.838125 
L 122.188432 93.611935 
L 114.416864 95.385744 
L 106.645295 97.159554 
L 98.873727 98.933364 
L 91.102159 100.707174 
L 83.330591 102.480983 
L 75.559023 104.254793 
" style="fill:none;stroke:#b0b0b0;stroke-linecap:square;stroke-width:0.8;"/>
     </g>
     <g id="text_6">
      <!-- L -->
      <g transform="translate(59.124094 110.129461)scale(0.1 -0.1)">
       <defs>
        <path d="M 628 4666 
L 1259 4666 
L 1259 531 
L 3531 531 
L 3531 0 
L 628 0 
L 628 4666 
z
" id="DejaVuSans-4c" transform="scale(0.015625)"/>
       </defs>
       <use xlink:href="#DejaVuSans-4c"/>
      </g>
     </g>
    </g>
    <g id="xtick_7">
     <g id="line2d_7">
      <path clip-path="url(#p2ae4ff834e)" d="M 129.96 91.838125 
L 123.727686 86.868021 
L 117.495372 81.897916 
L 111.263059 76.927812 
L 105.030745 71.957707 
L 98.798431 66.987603 
L 92.566117 62.017498 
L 86.333803 57.047394 
" style="fill:none;stroke:#b0b0b0;stroke-linecap:square;stroke-width:0.8;"/>
     </g>
     <g id="text_7">
      <!-- LA -->
      <g transform="translate(69.069413 51.077912)scale(0.1 -0.1)">
       <defs>
        <path d="M 2188 4044 
L 1331 1722 
L 3047 1722 
L 2188 4044 
z
M 1831 4666 
L 2547 4666 
L 4325 0 
L 3669 0 
L 3244 1197 
L 1141 1197 
L 716 0 
L 50 0 
L 1831 4666 
z
" id="DejaVuSans-41" transform="scale(0.015625)"/>
       </defs>
       <use xlink:href="#DejaVuSans-4c"/>
       <use x="57.962891" xlink:href="#DejaVuSans-41"/>
      </g>
     </g>
    </g>
   </g>
   <g id="matplotlib.axis_2">
    <g id="ytick_1">
     <g id="line2d_8">
      <path clip-path="url(#p2ae4ff834e)" d="M 129.96 73.238125 
L 144.502066 80.241215 
L 148.093659 95.977014 
L 138.030238 108.596146 
L 121.889762 108.596146 
L 111.826341 95.977014 
L 115.417934 80.241215 
L 129.96 73.238125 
" style="fill:none;stroke:#b0b0b0;stroke-linecap:square;stroke-width:0.8;"/>
     </g>
    </g>
    <g id="ytick_2">
     <g id="line2d_9">
      <path clip-path="url(#p2ae4ff834e)" d="M 129.96 54.638125 
L 159.044131 68.644304 
L 166.227318 100.115904 
L 146.100475 125.354167 
L 113.819525 125.354167 
L 93.692682 100.115904 
L 100.875869 68.644304 
L 129.96 54.638125 
" style="fill:none;stroke:#b0b0b0;stroke-linecap:square;stroke-width:0.8;"/>
     </g>
    </g>
    <g id="ytick_3">
     <g id="line2d_10">
      <path clip-path="url(#p2ae4ff834e)" d="M 129.96 36.038125 
L 173.586197 57.047394 
L 184.360977 104.254793 
L 154.170713 142.112188 
L 105.749287 142.112188 
L 75.559023 104.254793 
L 86.333803 57.047394 
L 129.96 36.038125 
" style="fill:none;stroke:#b0b0b0;stroke-linecap:square;stroke-width:0.8;"/>
     </g>
    </g>
   </g>
   <g id="line2d_11">
    <path clip-path="url(#p2ae4ff834e)" d="M 129.96 80.689673 
L 140.271253 83.615175 
L 158.971455 98.4598 
L 144.983763 123.03529 
L 113.736094 125.527413 
L 86.79234 101.690862 
L 94.424224 63.499289 
L 129.96 80.689673 
" style="fill:none;stroke:#ff0000;stroke-linecap:square;stroke-opacity:0.5;stroke-width:1.5;"/>
   </g>
   <g id="line2d_12">
    <path clip-path="url(#p2ae4ff834e)" d="M 129.96 80.079939 
L 140.218855 83.656961 
L 159.153595 98.501373 
L 144.193761 121.394835 
L 113.523474 125.968924 
L 85.786539 101.920429 
L 92.981955 62.349118 
L 129.96 80.079939 
" style="fill:none;stroke:#ff0000;stroke-linecap:square;stroke-opacity:0.05;stroke-width:1.5;"/>
   </g>
   <g id="line2d_13">
    <path clip-path="url(#p2ae4ff834e)" d="M 129.96 80.557363 
L 139.40128 84.308955 
L 158.350683 98.318113 
L 145.598972 124.312785 
L 113.980611 125.019669 
L 89.583493 101.053799 
L 94.912446 63.888633 
L 129.96 80.557363 
" style="fill:none;stroke:#ff0000;stroke-linecap:square;stroke-opacity:0.05;stroke-width:1.5;"/>
   </g>
   <g id="line2d_14">
    <path clip-path="url(#p2ae4ff834e)" d="M 129.96 81.431718 
L 141.193623 82.879609 
L 159.410088 98.559915 
L 145.158555 123.398251 
L 113.704198 125.593645 
L 85.006987 102.098357 
L 95.378272 64.260117 
L 129.96 81.431718 
" style="fill:none;stroke:#ff0000;stroke-linecap:square;stroke-opacity:0.05;stroke-width:1.5;"/>
   </g>
   <g id="patch_6">
    <path d="M 129.96 36.038125 
L 86.333803 57.047394 
L 75.559023 104.254793 
L 105.749287 142.112188 
L 154.170713 142.112188 
L 184.360977 104.254793 
L 173.586197 57.047394 
z
" style="fill:none;stroke:#000000;stroke-linecap:square;stroke-linejoin:miter;stroke-width:0.8;"/>
   </g>
   <g id="legend_1">
    <g id="patch_7">
     <path d="M 9.2 24.878125 
L 56.614063 24.878125 
Q 58.614063 24.878125 58.614063 22.878125 
L 58.614063 9.2 
Q 58.614063 7.2 56.614063 7.2 
L 9.2 7.2 
Q 7.2 7.2 7.2 9.2 
L 7.2 22.878125 
Q 7.2 24.878125 9.2 24.878125 
z
" style="fill:#ffffff;opacity:0.8;stroke:#cccccc;stroke-linejoin:miter;"/>
    </g>
    <g id="line2d_15">
     <path d="M 11.2 15.298438 
L 31.2 15.298438 
" style="fill:none;stroke:#ff0000;stroke-linecap:square;stroke-opacity:0.5;stroke-width:1.5;"/>
    </g>
    <g id="line2d_16"/>
    <g id="text_8">
     <!-- full -->
     <g transform="translate(39.2 18.798438)scale(0.1 -0.1)">
      <defs>
       <path d="M 2375 4863 
L 2375 4384 
L 1825 4384 
Q 1516 4384 1395 4259 
Q 1275 4134 1275 3809 
L 1275 3500 
L 2222 3500 
L 2222 3053 
L 1275 3053 
L 1275 0 
L 697 0 
L 697 3053 
L 147 3053 
L 147 3500 
L 697 3500 
L 697 3744 
Q 697 4328 969 4595 
Q 1241 4863 1831 4863 
L 2375 4863 
z
" id="DejaVuSans-66" transform="scale(0.015625)"/>
       <path d="M 603 4863 
L 1178 4863 
L 1178 0 
L 603 0 
L 603 4863 
z
" id="DejaVuSans-6c" transform="scale(0.015625)"/>
      </defs>
      <use xlink:href="#DejaVuSans-66"/>
      <use x="35.205078" xlink:href="#DejaVuSans-75"/>
      <use x="98.583984" xlink:href="#DejaVuSans-6c"/>
      <use x="126.367188" xlink:href="#DejaVuSans-6c"/>
     </g>
    </g>
   </g>
  </g>
  <g id="axes_2">
   <g id="patch_8">
    <path d="M 297.36 36.038125 
L 253.733803 57.047394 
L 242.959023 104.254793 
L 273.149287 142.112188 
L 321.570713 142.112188 
L 351.760977 104.254793 
L 340.986197 57.047394 
z
" style="fill:#ffffff;"/>
   </g>
   <g id="patch_9">
    <path clip-path="url(#p3a2c8fe702)" d="M 297.36 74.392468 
L 306.36946 84.653321 
L 340.669123 101.72315 
L 311.046166 120.257742 
L 283.326602 120.978776 
L 281.149157 95.538144 
L 286.297064 83.015728 
z
" style="fill:#0000ff;opacity:0.01;stroke:#0000ff;stroke-linejoin:miter;"/>
   </g>
   <g id="patch_10">
    <path clip-path="url(#p3a2c8fe702)" d="M 297.36 73.071021 
L 304.939349 85.793796 
L 341.944766 102.014307 
L 310.318958 118.747678 
L 282.063587 123.601454 
L 279.685407 95.872235 
L 288.36983 84.668704 
z
" style="fill:#0000ff;opacity:0.01;stroke:#0000ff;stroke-linejoin:miter;"/>
   </g>
   <g id="patch_11">
    <path clip-path="url(#p3a2c8fe702)" d="M 297.36 75.500867 
L 306.376044 84.64807 
L 344.387512 102.571848 
L 311.210295 120.59856 
L 285.179171 117.131877 
L 278.936447 96.043181 
L 288.864057 85.062836 
z
" style="fill:#0000ff;opacity:0.01;stroke:#0000ff;stroke-linejoin:miter;"/>
   </g>
   <g id="matplotlib.axis_3">
    <g id="xtick_8">
     <g id="line2d_17">
      <path clip-path="url(#p3a2c8fe702)" d="M 297.36 91.838125 
L 297.36 83.866696 
L 297.36 75.895268 
L 297.36 67.923839 
L 297.36 59.952411 
L 297.36 51.980982 
L 297.36 44.009554 
L 297.36 36.038125 
" style="fill:none;stroke:#b0b0b0;stroke-linecap:square;stroke-width:0.8;"/>
     </g>
     <g id="text_9">
      <!-- tT -->
      <g transform="translate(292.345937 24.7975)scale(0.1 -0.1)">
       <use xlink:href="#DejaVuSans-74"/>
       <use x="39.208984" xlink:href="#DejaVuSans-54"/>
      </g>
     </g>
    </g>
    <g id="xtick_9">
     <g id="line2d_18">
      <path clip-path="url(#p3a2c8fe702)" d="M 297.36 91.838125 
L 303.592314 86.868021 
L 309.824628 81.897916 
L 316.056941 76.927812 
L 322.289255 71.957707 
L 328.521569 66.987603 
L 334.753883 62.017498 
L 340.986197 57.047394 
" style="fill:none;stroke:#b0b0b0;stroke-linecap:square;stroke-width:0.8;"/>
     </g>
     <g id="text_10">
      <!-- S -->
      <g transform="translate(348.757619 51.077912)scale(0.1 -0.1)">
       <use xlink:href="#DejaVuSans-53"/>
      </g>
     </g>
    </g>
    <g id="xtick_10">
     <g id="line2d_19">
      <path clip-path="url(#p3a2c8fe702)" d="M 297.36 91.838125 
L 305.131568 93.611935 
L 312.903136 95.385744 
L 320.674705 97.159554 
L 328.446273 98.933364 
L 336.217841 100.707174 
L 343.989409 102.480983 
L 351.760977 104.254793 
" style="fill:none;stroke:#b0b0b0;stroke-linecap:square;stroke-width:0.8;"/>
     </g>
     <g id="text_11">
      <!-- EQ -->
      <g transform="translate(358.314656 110.129461)scale(0.1 -0.1)">
       <use xlink:href="#DejaVuSans-45"/>
       <use x="63.183594" xlink:href="#DejaVuSans-51"/>
      </g>
     </g>
    </g>
    <g id="xtick_11">
     <g id="line2d_20">
      <path clip-path="url(#p3a2c8fe702)" d="M 297.36 91.838125 
L 300.818673 99.020134 
L 304.277346 106.202143 
L 307.73602 113.384152 
L 311.194693 120.566161 
L 314.653366 127.74817 
L 318.112039 134.930179 
L 321.570713 142.112188 
" style="fill:none;stroke:#b0b0b0;stroke-linecap:square;stroke-width:0.8;"/>
     </g>
     <g id="text_12">
      <!-- Sub -->
      <g transform="translate(318.127897 157.485127)scale(0.1 -0.1)">
       <use xlink:href="#DejaVuSans-53"/>
       <use x="63.476562" xlink:href="#DejaVuSans-75"/>
       <use x="126.855469" xlink:href="#DejaVuSans-62"/>
      </g>
     </g>
    </g>
    <g id="xtick_12">
     <g id="line2d_21">
      <path clip-path="url(#p3a2c8fe702)" d="M 297.36 91.838125 
L 293.901327 99.020134 
L 290.442654 106.202143 
L 286.98398 113.384152 
L 283.525307 120.566161 
L 280.066634 127.74817 
L 276.607961 134.930179 
L 273.149287 142.112188 
" style="fill:none;stroke:#b0b0b0;stroke-linecap:square;stroke-width:0.8;"/>
     </g>
     <g id="text_13">
      <!-- CP -->
      <g transform="translate(260.568665 157.485127)scale(0.1 -0.1)">
       <use xlink:href="#DejaVuSans-43"/>
       <use x="69.824219" xlink:href="#DejaVuSans-50"/>
      </g>
     </g>
    </g>
    <g id="xtick_13">
     <g id="line2d_22">
      <path clip-path="url(#p3a2c8fe702)" d="M 297.36 91.838125 
L 289.588432 93.611935 
L 281.816864 95.385744 
L 274.045295 97.159554 
L 266.273727 98.933364 
L 258.502159 100.707174 
L 250.730591 102.480983 
L 242.959023 104.254793 
" style="fill:none;stroke:#b0b0b0;stroke-linecap:square;stroke-width:0.8;"/>
     </g>
     <g id="text_14">
      <!-- L -->
      <g transform="translate(226.524094 110.129461)scale(0.1 -0.1)">
       <use xlink:href="#DejaVuSans-4c"/>
      </g>
     </g>
    </g>
    <g id="xtick_14">
     <g id="line2d_23">
      <path clip-path="url(#p3a2c8fe702)" d="M 297.36 91.838125 
L 291.127686 86.868021 
L 284.895372 81.897916 
L 278.663059 76.927812 
L 272.430745 71.957707 
L 266.198431 66.987603 
L 259.966117 62.017498 
L 253.733803 57.047394 
" style="fill:none;stroke:#b0b0b0;stroke-linecap:square;stroke-width:0.8;"/>
     </g>
     <g id="text_15">
      <!-- LA -->
      <g transform="translate(236.469413 51.077912)scale(0.1 -0.1)">
       <use xlink:href="#DejaVuSans-4c"/>
       <use x="57.962891" xlink:href="#DejaVuSans-41"/>
      </g>
     </g>
    </g>
   </g>
   <g id="matplotlib.axis_4">
    <g id="ytick_4">
     <g id="line2d_24">
      <path clip-path="url(#p3a2c8fe702)" d="M 297.36 73.238125 
L 311.902066 80.241215 
L 315.493659 95.977014 
L 305.430238 108.596146 
L 289.289762 108.596146 
L 279.226341 95.977014 
L 282.817934 80.241215 
L 297.36 73.238125 
" style="fill:none;stroke:#b0b0b0;stroke-linecap:square;stroke-width:0.8;"/>
     </g>
    </g>
    <g id="ytick_5">
     <g id="line2d_25">
      <path clip-path="url(#p3a2c8fe702)" d="M 297.36 54.638125 
L 326.444131 68.644304 
L 333.627318 100.115904 
L 313.500475 125.354167 
L 281.219525 125.354167 
L 261.092682 100.115904 
L 268.275869 68.644304 
L 297.36 54.638125 
" style="fill:none;stroke:#b0b0b0;stroke-linecap:square;stroke-width:0.8;"/>
     </g>
    </g>
    <g id="ytick_6">
     <g id="line2d_26">
      <path clip-path="url(#p3a2c8fe702)" d="M 297.36 36.038125 
L 340.986197 57.047394 
L 351.760977 104.254793 
L 321.570713 142.112188 
L 273.149287 142.112188 
L 242.959023 104.254793 
L 253.733803 57.047394 
L 297.36 36.038125 
" style="fill:none;stroke:#b0b0b0;stroke-linecap:square;stroke-width:0.8;"/>
     </g>
    </g>
   </g>
   <g id="line2d_27">
    <path clip-path="url(#p3a2c8fe702)" d="M 297.36 74.321452 
L 305.894951 85.031729 
L 342.3338 102.103101 
L 310.858473 119.867993 
L 283.52312 120.570702 
L 279.92367 95.817853 
L 287.84365 84.249089 
L 297.36 74.321452 
" style="fill:none;stroke:#0000ff;stroke-linecap:square;stroke-opacity:0.5;stroke-width:1.5;"/>
   </g>
   <g id="line2d_28">
    <path clip-path="url(#p3a2c8fe702)" d="M 297.36 74.392468 
L 306.36946 84.653321 
L 340.669123 101.72315 
L 311.046166 120.257742 
L 283.326602 120.978776 
L 281.149157 95.538144 
L 286.297064 83.015728 
L 297.36 74.392468 
" style="fill:none;stroke:#0000ff;stroke-linecap:square;stroke-opacity:0.05;stroke-width:1.5;"/>
   </g>
   <g id="line2d_29">
    <path clip-path="url(#p3a2c8fe702)" d="M 297.36 73.071021 
L 304.939349 85.793796 
L 341.944766 102.014307 
L 310.318958 118.747678 
L 282.063587 123.601454 
L 279.685407 95.872235 
L 288.36983 84.668704 
L 297.36 73.071021 
" style="fill:none;stroke:#0000ff;stroke-linecap:square;stroke-opacity:0.05;stroke-width:1.5;"/>
   </g>
   <g id="line2d_30">
    <path clip-path="url(#p3a2c8fe702)" d="M 297.36 75.500867 
L 306.376044 84.64807 
L 344.387512 102.571848 
L 311.210295 120.59856 
L 285.179171 117.131877 
L 278.936447 96.043181 
L 288.864057 85.062836 
L 297.36 75.500867 
" style="fill:none;stroke:#0000ff;stroke-linecap:square;stroke-opacity:0.05;stroke-width:1.5;"/>
   </g>
   <g id="patch_12">
    <path d="M 297.36 36.038125 
L 253.733803 57.047394 
L 242.959023 104.254793 
L 273.149287 142.112188 
L 321.570713 142.112188 
L 351.760977 104.254793 
L 340.986197 57.047394 
z
" style="fill:none;stroke:#000000;stroke-linecap:square;stroke-linejoin:miter;stroke-width:0.8;"/>
   </g>
   <g id="legend_2">
    <g id="patch_13">
     <path d="M 176.6 24.878125 
L 215.460938 24.878125 
Q 217.460938 24.878125 217.460938 22.878125 
L 217.460938 9.2 
Q 217.460938 7.2 215.460938 7.2 
L 176.6 7.2 
Q 174.6 7.2 174.6 9.2 
L 174.6 22.878125 
Q 174.6 24.878125 176.6 24.878125 
z
" style="fill:#ffffff;opacity:0.8;stroke:#cccccc;stroke-linejoin:miter;"/>
    </g>
    <g id="line2d_31">
     <path d="M 178.6 15.298438 
L 198.6 15.298438 
" style="fill:none;stroke:#0000ff;stroke-linecap:square;stroke-opacity:0.5;stroke-width:1.5;"/>
    </g>
    <g id="line2d_32"/>
    <g id="text_16">
     <!-- B -->
     <g transform="translate(206.6 18.798438)scale(0.1 -0.1)">
      <defs>
       <path d="M 1259 2228 
L 1259 519 
L 2272 519 
Q 2781 519 3026 730 
Q 3272 941 3272 1375 
Q 3272 1813 3026 2020 
Q 2781 2228 2272 2228 
L 1259 2228 
z
M 1259 4147 
L 1259 2741 
L 2194 2741 
Q 2656 2741 2882 2914 
Q 3109 3088 3109 3444 
Q 3109 3797 2882 3972 
Q 2656 4147 2194 4147 
L 1259 4147 
z
M 628 4666 
L 2241 4666 
Q 2963 4666 3353 4366 
Q 3744 4066 3744 3513 
Q 3744 3084 3544 2831 
Q 3344 2578 2956 2516 
Q 3422 2416 3680 2098 
Q 3938 1781 3938 1306 
Q 3938 681 3513 340 
Q 3088 0 2303 0 
L 628 0 
L 628 4666 
z
" id="DejaVuSans-42" transform="scale(0.015625)"/>
      </defs>
      <use xlink:href="#DejaVuSans-42"/>
     </g>
    </g>
   </g>
  </g>
 </g>
 <defs>
  <clipPath id="p2ae4ff834e">
   <path d="M 129.96 36.038125 
L 86.333803 57.047394 
L 75.559023 104.254793 
L 105.749287 142.112188 
L 154.170713 142.112188 
L 184.360977 104.254793 
L 173.586197 57.047394 
z
"/>
  </clipPath>
  <clipPath id="p3a2c8fe702">
   <path d="M 297.36 36.038125 
L 253.733803 57.047394 
L 242.959023 104.254793 
L 273.149287 142.112188 
L 321.570713 142.112188 
L 351.760977 104.254793 
L 340.986197 57.047394 
z
"/>
  </clipPath>
 </defs>
</svg>
