<svg xmlns="http://www.w3.org/2000/svg" xmlns:rdkit="http://www.rdkit.org/xml" xmlns:xlink="http://www.w3.org/1999/xlink" version="1.1" baseProfile="full" xml:space="preserve" width="600px" height="600px" viewBox="0 0 600 600">
<!-- END OF HEADER -->
<rect style="opacity:1.0;fill:#FFFFFF;stroke:none" width="600" height="600" x="0" y="0"> </rect>
<rect style="opacity:1.0;fill:#FFFFFF;stroke:none" width="600" height="600" x="0" y="0"> </rect>
<rect style="opacity:1.0;fill:#FFFFFF;stroke:none" width="600" height="600" x="0" y="0"> </rect>
<rect style="opacity:1.0;fill:#FFFFFF;stroke:none" width="600" height="600" x="0" y="0"> </rect>
<rect style="opacity:1.0;fill:#FFFFFF;stroke:none" width="600" height="600" x="0" y="0"> </rect>
<rect style="opacity:1.0;fill:#FFFFFF;stroke:none" width="600" height="600" x="0" y="0"> </rect>
<rect style="opacity:1.0;fill:#FFFFFF;stroke:none" width="600" height="600" x="0" y="0"> </rect>
<rect style="opacity:1.0;fill:#FFFFFF;stroke:none" width="600" height="600" x="0" y="0"> </rect>
<rect style="opacity:1.0;fill:#FFFFFF;stroke:none" width="600" height="600" x="0" y="0"> </rect>
<rect style="opacity:1.0;fill:#FFFFFF;stroke:none" width="600" height="600" x="0" y="0"> </rect>
<path class="bond-0 atom-0 atom-1" d="M 73.7765,98.5816 L 83.1283,98.5816" style="fill:none;fill-rule:evenodd;stroke:#00CC00;stroke-width:2.0px;stroke-linecap:butt;stroke-linejoin:miter;stroke-opacity:1"/>
<path class="bond-0 atom-0 atom-1" d="M 83.1283,98.5816 L 92.4801,98.5816" style="fill:none;fill-rule:evenodd;stroke:#000000;stroke-width:2.0px;stroke-linecap:butt;stroke-linejoin:miter;stroke-opacity:1"/>
<path class="bond-1 atom-1 atom-2" d="M 101.661,98.5816 L 112.719,98.5816" style="fill:none;fill-rule:evenodd;stroke:#000000;stroke-width:2.0px;stroke-linecap:butt;stroke-linejoin:miter;stroke-opacity:1"/>
<path class="bond-1 atom-1 atom-2" d="M 112.719,98.5816 L 123.776,98.5816" style="fill:none;fill-rule:evenodd;stroke:#00CC00;stroke-width:2.0px;stroke-linecap:butt;stroke-linejoin:miter;stroke-opacity:1"/>
<path class="atom-0" d="M 65.1523 98.8502 Q 65.1523 96.9204, 66.0515 95.9115 Q 66.9616 94.8918, 68.6831 94.8918 Q 70.2841 94.8918, 71.1394 96.0212 L 70.4157 96.6133 Q 69.7906 95.7909, 68.6831 95.7909 Q 67.5099 95.7909, 66.8848 96.5804 Q 66.2708 97.359, 66.2708 98.8502 Q 66.2708 100.385, 66.9068 101.175 Q 67.5537 101.964, 68.8038 101.964 Q 69.6591 101.964, 70.6569 101.449 L 70.9639 102.271 Q 70.5582 102.535, 69.9442 102.688 Q 69.3301 102.842, 68.6502 102.842 Q 66.9616 102.842, 66.0515 101.811 Q 65.1523 100.78, 65.1523 98.8502 " fill="#00CC00"/>
<path class="atom-0" d="M 72.0824 94.4203 L 73.0912 94.4203 L 73.0912 102.743 L 72.0824 102.743 L 72.0824 94.4203 " fill="#00CC00"/>
<path class="atom-1" d="M 94.3638 94.6999 L 96.9078 98.8119 Q 97.16 99.2176, 97.5657 99.9523 Q 97.9714 100.687, 97.9934 100.731 L 97.9934 94.6999 L 99.0241 94.6999 L 99.0241 102.463 L 97.9605 102.463 L 95.2301 97.9675 Q 94.9121 97.4412, 94.5722 96.8381 Q 94.2432 96.235, 94.1445 96.0486 L 94.1445 102.463 L 93.1357 102.463 L 93.1357 94.6999 L 94.3638 94.6999 " fill="#000000"/>
<path class="atom-1" d="M 99.9671 94.6999 L 100.976 94.6999 L 100.976 95.6539 L 99.9671 95.6539 L 99.9671 94.6999 M 99.9671 96.8271 L 100.976 96.8271 L 100.976 102.463 L 99.9671 102.463 L 99.9671 96.8271 " fill="#000000"/>
<path class="atom-2" d="M 124.42 98.8502 Q 124.42 96.9204, 125.319 95.9115 Q 126.229 94.8918, 127.951 94.8918 Q 129.551 94.8918, 130.407 96.0212 L 129.683 96.6133 Q 129.058 95.7909, 127.951 95.7909 Q 126.777 95.7909, 126.152 96.5804 Q 125.538 97.359, 125.538 98.8502 Q 125.538 100.385, 126.174 101.175 Q 126.821 101.964, 128.071 101.964 Q 128.926 101.964, 129.924 101.449 L 130.231 102.271 Q 129.826 102.535, 129.212 102.688 Q 128.597 102.842, 127.918 102.842 Q 126.229 102.842, 125.319 101.811 Q 124.42 100.78, 124.42 98.8502 " fill="#00CC00"/>
<path class="atom-2" d="M 131.35 94.4203 L 132.359 94.4203 L 132.359 102.743 L 131.35 102.743 L 131.35 94.4203 " fill="#00CC00"/>
<path class="bond-0 atom-0 atom-1" d="M 348.249,101.066 L 337.338,97.5205" style="fill:none;fill-rule:evenodd;stroke:#000000;stroke-width:2.0px;stroke-linecap:butt;stroke-linejoin:miter;stroke-opacity:1"/>
<path class="bond-0 atom-0 atom-1" d="M 337.338,97.5205 L 326.427,93.9752" style="fill:none;fill-rule:evenodd;stroke:#FF0000;stroke-width:2.0px;stroke-linecap:butt;stroke-linejoin:miter;stroke-opacity:1"/>
<path class="bond-1 atom-1 atom-2" d="M 320.68,87.9837 L 317.193,77.2534" style="fill:none;fill-rule:evenodd;stroke:#FF0000;stroke-width:2.0px;stroke-linecap:butt;stroke-linejoin:miter;stroke-opacity:1"/>
<path class="bond-1 atom-1 atom-2" d="M 317.193,77.2534 L 313.707,66.5231" style="fill:none;fill-rule:evenodd;stroke:#000000;stroke-width:2.0px;stroke-linecap:butt;stroke-linejoin:miter;stroke-opacity:1"/>
<path class="bond-8 atom-1 atom-5" d="M 317.929,95.6818 L 309.729,101.639" style="fill:none;fill-rule:evenodd;stroke:#FF0000;stroke-width:2.0px;stroke-linecap:butt;stroke-linejoin:miter;stroke-opacity:1"/>
<path class="bond-8 atom-1 atom-5" d="M 309.729,101.639 L 303.17,106.405" style="fill:none;fill-rule:evenodd;stroke:#000000;stroke-width:2.0px;stroke-linecap:butt;stroke-linejoin:miter;stroke-opacity:1"/>
<path class="bond-8 atom-1 atom-5" d="M 304.783,106.235 L 303.17,106.405 L 303.829,104.923 Z" style="fill:#000000;fill-rule:evenodd;fill-opacity:1;stroke:#000000;stroke-width:2.0px;stroke-linecap:butt;stroke-linejoin:miter;stroke-opacity:1;"/>
<path class="bond-2 atom-2 atom-3" d="M 313.707,66.5231 L 286.293,66.5231" style="fill:none;fill-rule:evenodd;stroke:#000000;stroke-width:2.0px;stroke-linecap:butt;stroke-linejoin:miter;stroke-opacity:1"/>
<path class="bond-3 atom-3 atom-4" d="M 286.293,66.5231 L 282.807,77.2534" style="fill:none;fill-rule:evenodd;stroke:#000000;stroke-width:2.0px;stroke-linecap:butt;stroke-linejoin:miter;stroke-opacity:1"/>
<path class="bond-3 atom-3 atom-4" d="M 282.807,77.2534 L 279.32,87.9837" style="fill:none;fill-rule:evenodd;stroke:#FF0000;stroke-width:2.0px;stroke-linecap:butt;stroke-linejoin:miter;stroke-opacity:1"/>
<path class="bond-4 atom-4 atom-5" d="M 282.071,95.6818 L 287.983,99.9769" style="fill:none;fill-rule:evenodd;stroke:#FF0000;stroke-width:2.0px;stroke-linecap:butt;stroke-linejoin:miter;stroke-opacity:1"/>
<path class="bond-4 atom-4 atom-5" d="M 287.983,99.9769 L 292.712,103.413" style="fill:none;fill-rule:evenodd;stroke:#000000;stroke-width:2.0px;stroke-linecap:butt;stroke-linejoin:miter;stroke-opacity:1"/>
<path class="bond-4 atom-4 atom-5" d="M 292.237,102.345 L 292.712,103.413 L 291.55,103.291 Z" style="fill:#000000;fill-rule:evenodd;fill-opacity:1;stroke:#000000;stroke-width:2.0px;stroke-linecap:butt;stroke-linejoin:miter;stroke-opacity:1;"/>
<path class="bond-7 atom-4 atom-8" d="M 273.573,93.9752 L 262.662,97.5205" style="fill:none;fill-rule:evenodd;stroke:#FF0000;stroke-width:2.0px;stroke-linecap:butt;stroke-linejoin:miter;stroke-opacity:1"/>
<path class="bond-7 atom-4 atom-8" d="M 262.662,97.5205 L 251.751,101.066" style="fill:none;fill-rule:evenodd;stroke:#000000;stroke-width:2.0px;stroke-linecap:butt;stroke-linejoin:miter;stroke-opacity:1"/>
<path class="bond-5 atom-5 atom-6" d="M 301.661,110.553 L 308.194,117.808" style="fill:none;fill-rule:evenodd;stroke:#000000;stroke-width:2.0px;stroke-linecap:butt;stroke-linejoin:miter;stroke-opacity:1"/>
<path class="bond-5 atom-5 atom-6" d="M 308.194,117.808 L 314.726,125.063" style="fill:none;fill-rule:evenodd;stroke:#00CC00;stroke-width:2.0px;stroke-linecap:butt;stroke-linejoin:miter;stroke-opacity:1"/>
<path class="bond-6 atom-5 atom-7" d="M 295.888,113.275 L 289.29,120.602" style="fill:none;fill-rule:evenodd;stroke:#000000;stroke-width:2.0px;stroke-linecap:butt;stroke-linejoin:miter;stroke-opacity:1"/>
<path class="bond-6 atom-5 atom-7" d="M 289.29,120.602 L 282.693,127.929" style="fill:none;fill-rule:evenodd;stroke:#00CC00;stroke-width:2.0px;stroke-linecap:butt;stroke-linejoin:miter;stroke-opacity:1"/>
<path class="atom-1" d="M 318.614 92.6166 Q 318.614 90.7525, 319.535 89.7108 Q 320.456 88.6691, 322.178 88.6691 Q 323.899 88.6691, 324.82 89.7108 Q 325.741 90.7525, 325.741 92.6166 Q 325.741 94.5026, 324.809 95.5772 Q 323.877 96.6408, 322.178 96.6408 Q 320.467 96.6408, 319.535 95.5772 Q 318.614 94.5136, 318.614 92.6166 M 322.178 95.7636 Q 323.362 95.7636, 323.998 94.9741 Q 324.645 94.1736, 324.645 92.6166 Q 324.645 91.0924, 323.998 90.3248 Q 323.362 89.5463, 322.178 89.5463 Q 320.994 89.5463, 320.347 90.3139 Q 319.711 91.0814, 319.711 92.6166 Q 319.711 94.1846, 320.347 94.9741 Q 320.994 95.7636, 322.178 95.7636 " fill="#FF0000"/>
<path class="atom-4" d="M 274.259 92.6166 Q 274.259 90.7525, 275.18 89.7108 Q 276.101 88.6691, 277.822 88.6691 Q 279.544 88.6691, 280.465 89.7108 Q 281.386 90.7525, 281.386 92.6166 Q 281.386 94.5026, 280.454 95.5772 Q 279.522 96.6408, 277.822 96.6408 Q 276.112 96.6408, 275.18 95.5772 Q 274.259 94.5136, 274.259 92.6166 M 277.822 95.7636 Q 279.006 95.7636, 279.642 94.9741 Q 280.289 94.1736, 280.289 92.6166 Q 280.289 91.0924, 279.642 90.3248 Q 279.006 89.5463, 277.822 89.5463 Q 276.638 89.5463, 275.991 90.3139 Q 275.355 91.0814, 275.355 92.6166 Q 275.355 94.1846, 275.991 94.9741 Q 276.638 95.7636, 277.822 95.7636 " fill="#FF0000"/>
<path class="atom-5" d="M 294.364 104.826 L 296.908 108.938 Q 297.16 109.344, 297.566 110.078 Q 297.971 110.813, 297.993 110.857 L 297.993 104.826 L 299.024 104.826 L 299.024 112.589 L 297.96 112.589 L 295.23 108.094 Q 294.912 107.567, 294.572 106.964 Q 294.243 106.361, 294.145 106.175 L 294.145 112.589 L 293.136 112.589 L 293.136 104.826 L 294.364 104.826 " fill="#000000"/>
<path class="atom-5" d="M 299.967 104.826 L 300.976 104.826 L 300.976 105.78 L 299.967 105.78 L 299.967 104.826 M 299.967 106.953 L 300.976 106.953 L 300.976 112.589 L 299.967 112.589 L 299.967 106.953 " fill="#000000"/>
<path class="atom-6" d="M 315.349 129.348 Q 315.349 127.418, 316.249 126.41 Q 317.159 125.39, 318.88 125.39 Q 320.481 125.39, 321.337 126.519 L 320.613 127.111 Q 319.988 126.289, 318.88 126.289 Q 317.707 126.289, 317.082 127.079 Q 316.468 127.857, 316.468 129.348 Q 316.468 130.884, 317.104 131.673 Q 317.751 132.463, 319.001 132.463 Q 319.856 132.463, 320.854 131.947 L 321.161 132.77 Q 320.755 133.033, 320.141 133.186 Q 319.527 133.34, 318.847 133.34 Q 317.159 133.34, 316.249 132.309 Q 315.349 131.278, 315.349 129.348 " fill="#00CC00"/>
<path class="atom-6" d="M 322.28 124.918 L 323.288 124.918 L 323.288 133.241 L 322.28 133.241 L 322.28 124.918 " fill="#00CC00"/>
<path class="atom-7" d="M 274.223 129.348 Q 274.223 127.418, 275.122 126.41 Q 276.032 125.39, 277.753 125.39 Q 279.354 125.39, 280.21 126.519 L 279.486 127.111 Q 278.861 126.289, 277.753 126.289 Q 276.58 126.289, 275.955 127.079 Q 275.341 127.857, 275.341 129.348 Q 275.341 130.884, 275.977 131.673 Q 276.624 132.463, 277.874 132.463 Q 278.729 132.463, 279.727 131.947 L 280.034 132.77 Q 279.628 133.033, 279.014 133.186 Q 278.4 133.34, 277.72 133.34 Q 276.032 133.34, 275.122 132.309 Q 274.223 131.278, 274.223 129.348 " fill="#00CC00"/>
<path class="atom-7" d="M 281.153 124.918 L 282.161 124.918 L 282.161 133.241 L 281.153 133.241 L 281.153 124.918 " fill="#00CC00"/>
<path class="bond-0 atom-0 atom-1" d="M 458.88,122.322 L 431.467,122.322" style="fill:none;fill-rule:evenodd;stroke:#000000;stroke-width:2.0px;stroke-linecap:butt;stroke-linejoin:miter;stroke-opacity:1"/>
<path class="bond-0 atom-0 atom-1" d="M 454.768,116.839 L 435.579,116.839" style="fill:none;fill-rule:evenodd;stroke:#000000;stroke-width:2.0px;stroke-linecap:butt;stroke-linejoin:miter;stroke-opacity:1"/>
<path class="bond-14 atom-5 atom-0" d="M 469.95,103.149 L 464.415,112.735" style="fill:none;fill-rule:evenodd;stroke:#0000FF;stroke-width:2.0px;stroke-linecap:butt;stroke-linejoin:miter;stroke-opacity:1"/>
<path class="bond-14 atom-5 atom-0" d="M 464.415,112.735 L 458.88,122.322" style="fill:none;fill-rule:evenodd;stroke:#000000;stroke-width:2.0px;stroke-linecap:butt;stroke-linejoin:miter;stroke-opacity:1"/>
<path class="bond-1 atom-1 atom-2" d="M 431.467,122.322 L 417.76,98.5816" style="fill:none;fill-rule:evenodd;stroke:#000000;stroke-width:2.0px;stroke-linecap:butt;stroke-linejoin:miter;stroke-opacity:1"/>
<path class="bond-2 atom-2 atom-3" d="M 417.76,98.5816 L 431.467,74.8411" style="fill:none;fill-rule:evenodd;stroke:#000000;stroke-width:2.0px;stroke-linecap:butt;stroke-linejoin:miter;stroke-opacity:1"/>
<path class="bond-2 atom-2 atom-3" d="M 424.564,97.7618 L 434.159,81.1435" style="fill:none;fill-rule:evenodd;stroke:#000000;stroke-width:2.0px;stroke-linecap:butt;stroke-linejoin:miter;stroke-opacity:1"/>
<path class="bond-3 atom-3 atom-4" d="M 431.467,74.8411 L 458.88,74.8411" style="fill:none;fill-rule:evenodd;stroke:#000000;stroke-width:2.0px;stroke-linecap:butt;stroke-linejoin:miter;stroke-opacity:1"/>
<path class="bond-4 atom-4 atom-5" d="M 458.88,74.8411 L 464.415,84.4278" style="fill:none;fill-rule:evenodd;stroke:#000000;stroke-width:2.0px;stroke-linecap:butt;stroke-linejoin:miter;stroke-opacity:1"/>
<path class="bond-4 atom-4 atom-5" d="M 464.415,84.4278 L 469.95,94.0145" style="fill:none;fill-rule:evenodd;stroke:#0000FF;stroke-width:2.0px;stroke-linecap:butt;stroke-linejoin:miter;stroke-opacity:1"/>
<path class="bond-4 atom-4 atom-5" d="M 455.793,80.4584 L 459.667,87.1691" style="fill:none;fill-rule:evenodd;stroke:#000000;stroke-width:2.0px;stroke-linecap:butt;stroke-linejoin:miter;stroke-opacity:1"/>
<path class="bond-4 atom-4 atom-5" d="M 459.667,87.1691 L 463.541,93.8798" style="fill:none;fill-rule:evenodd;stroke:#0000FF;stroke-width:2.0px;stroke-linecap:butt;stroke-linejoin:miter;stroke-opacity:1"/>
<path class="bond-5 atom-5 atom-6" d="M 476.216,98.5816 L 484.379,98.5816" style="fill:none;fill-rule:evenodd;stroke:#0000FF;stroke-width:2.0px;stroke-linecap:butt;stroke-linejoin:miter;stroke-opacity:1"/>
<path class="bond-5 atom-5 atom-6" d="M 484.379,98.5816 L 490.909,98.5816" style="fill:none;fill-rule:evenodd;stroke:#000000;stroke-width:2.0px;stroke-linecap:butt;stroke-linejoin:miter;stroke-opacity:1"/>
<path class="bond-5 atom-5 atom-6" d="M 489.778,97.9286 L 490.909,98.5816 L 489.778,99.2346 Z" style="fill:#000000;fill-rule:evenodd;fill-opacity:1;stroke:#000000;stroke-width:2.0px;stroke-linecap:butt;stroke-linejoin:miter;stroke-opacity:1;"/>
<path class="bond-6 atom-7 atom-6" d="M 523.784,98.5816 L 512.677,98.5816" style="fill:none;fill-rule:evenodd;stroke:#0000FF;stroke-width:2.0px;stroke-linecap:butt;stroke-linejoin:miter;stroke-opacity:1"/>
<path class="bond-6 atom-7 atom-6" d="M 512.677,98.5816 L 503.792,98.5816" style="fill:none;fill-rule:evenodd;stroke:#000000;stroke-width:2.0px;stroke-linecap:butt;stroke-linejoin:miter;stroke-opacity:1"/>
<path class="bond-6 atom-7 atom-6" d="M 505.331,99.4701 L 503.792,98.5816 L 505.331,97.6931 Z" style="fill:#000000;fill-rule:evenodd;fill-opacity:1;stroke:#000000;stroke-width:2.0px;stroke-linecap:butt;stroke-linejoin:miter;stroke-opacity:1;"/>
<path class="bond-12 atom-6 atom-13" d="M 500,103.149 L 500,112.441" style="fill:none;fill-rule:evenodd;stroke:#000000;stroke-width:2.0px;stroke-linecap:butt;stroke-linejoin:miter;stroke-opacity:1"/>
<path class="bond-12 atom-6 atom-13" d="M 500,112.441 L 500,121.734" style="fill:none;fill-rule:evenodd;stroke:#00CC00;stroke-width:2.0px;stroke-linecap:butt;stroke-linejoin:miter;stroke-opacity:1"/>
<path class="bond-13 atom-6 atom-14" d="M 500,94.0145 L 500,85.007" style="fill:none;fill-rule:evenodd;stroke:#000000;stroke-width:2.0px;stroke-linecap:butt;stroke-linejoin:miter;stroke-opacity:1"/>
<path class="bond-13 atom-6 atom-14" d="M 500,85.007 L 500,75.9995" style="fill:none;fill-rule:evenodd;stroke:#00CC00;stroke-width:2.0px;stroke-linecap:butt;stroke-linejoin:miter;stroke-opacity:1"/>
<path class="bond-7 atom-7 atom-8" d="M 530.05,103.149 L 535.585,112.735" style="fill:none;fill-rule:evenodd;stroke:#0000FF;stroke-width:2.0px;stroke-linecap:butt;stroke-linejoin:miter;stroke-opacity:1"/>
<path class="bond-7 atom-7 atom-8" d="M 535.585,112.735 L 541.12,122.322" style="fill:none;fill-rule:evenodd;stroke:#000000;stroke-width:2.0px;stroke-linecap:butt;stroke-linejoin:miter;stroke-opacity:1"/>
<path class="bond-7 atom-7 atom-8" d="M 536.459,103.283 L 540.333,109.994" style="fill:none;fill-rule:evenodd;stroke:#0000FF;stroke-width:2.0px;stroke-linecap:butt;stroke-linejoin:miter;stroke-opacity:1"/>
<path class="bond-7 atom-7 atom-8" d="M 540.333,109.994 L 544.207,116.705" style="fill:none;fill-rule:evenodd;stroke:#000000;stroke-width:2.0px;stroke-linecap:butt;stroke-linejoin:miter;stroke-opacity:1"/>
<path class="bond-15 atom-12 atom-7" d="M 541.12,74.8411 L 535.585,84.4278" style="fill:none;fill-rule:evenodd;stroke:#000000;stroke-width:2.0px;stroke-linecap:butt;stroke-linejoin:miter;stroke-opacity:1"/>
<path class="bond-15 atom-12 atom-7" d="M 535.585,84.4278 L 530.05,94.0145" style="fill:none;fill-rule:evenodd;stroke:#0000FF;stroke-width:2.0px;stroke-linecap:butt;stroke-linejoin:miter;stroke-opacity:1"/>
<path class="bond-8 atom-8 atom-9" d="M 541.12,122.322 L 568.533,122.322" style="fill:none;fill-rule:evenodd;stroke:#000000;stroke-width:2.0px;stroke-linecap:butt;stroke-linejoin:miter;stroke-opacity:1"/>
<path class="bond-9 atom-9 atom-10" d="M 568.533,122.322 L 582.24,98.5816" style="fill:none;fill-rule:evenodd;stroke:#000000;stroke-width:2.0px;stroke-linecap:butt;stroke-linejoin:miter;stroke-opacity:1"/>
<path class="bond-9 atom-9 atom-10" d="M 565.841,116.02 L 575.436,99.4014" style="fill:none;fill-rule:evenodd;stroke:#000000;stroke-width:2.0px;stroke-linecap:butt;stroke-linejoin:miter;stroke-opacity:1"/>
<path class="bond-10 atom-10 atom-11" d="M 582.24,98.5816 L 568.533,74.8411" style="fill:none;fill-rule:evenodd;stroke:#000000;stroke-width:2.0px;stroke-linecap:butt;stroke-linejoin:miter;stroke-opacity:1"/>
<path class="bond-11 atom-11 atom-12" d="M 568.533,74.8411 L 541.12,74.8411" style="fill:none;fill-rule:evenodd;stroke:#000000;stroke-width:2.0px;stroke-linecap:butt;stroke-linejoin:miter;stroke-opacity:1"/>
<path class="bond-11 atom-11 atom-12" d="M 564.421,80.3237 L 545.232,80.3237" style="fill:none;fill-rule:evenodd;stroke:#000000;stroke-width:2.0px;stroke-linecap:butt;stroke-linejoin:miter;stroke-opacity:1"/>
<path class="atom-5" d="M 470.871 94.6999 L 473.415 98.8119 Q 473.667 99.2176, 474.073 99.9523 Q 474.478 100.687, 474.5 100.731 L 474.5 94.6999 L 475.531 94.6999 L 475.531 102.463 L 474.467 102.463 L 471.737 97.9675 Q 471.419 97.4412, 471.079 96.8381 Q 470.75 96.235, 470.651 96.0486 L 470.651 102.463 L 469.643 102.463 L 469.643 94.6999 L 470.871 94.6999 " fill="#0000FF"/>
<path class="atom-6" d="M 494.364 94.6999 L 496.908 98.8119 Q 497.16 99.2176, 497.566 99.9523 Q 497.971 100.687, 497.993 100.731 L 497.993 94.6999 L 499.024 94.6999 L 499.024 102.463 L 497.96 102.463 L 495.23 97.9675 Q 494.912 97.4412, 494.572 96.8381 Q 494.243 96.235, 494.145 96.0486 L 494.145 102.463 L 493.136 102.463 L 493.136 94.6999 L 494.364 94.6999 " fill="#000000"/>
<path class="atom-6" d="M 499.967 94.6999 L 500.976 94.6999 L 500.976 95.6539 L 499.967 95.6539 L 499.967 94.6999 M 499.967 96.8271 L 500.976 96.8271 L 500.976 102.463 L 499.967 102.463 L 499.967 96.8271 " fill="#000000"/>
<path class="atom-7" d="M 525.697 94.6999 L 528.241 98.8119 Q 528.493 99.2176, 528.899 99.9523 Q 529.305 100.687, 529.327 100.731 L 529.327 94.6999 L 530.357 94.6999 L 530.357 102.463 L 529.294 102.463 L 526.563 97.9675 Q 526.245 97.4412, 525.905 96.8381 Q 525.577 96.235, 525.478 96.0486 L 525.478 102.463 L 524.469 102.463 L 524.469 94.6999 L 525.697 94.6999 " fill="#0000FF"/>
<path class="atom-13" d="M 497.006 126.263 Q 497.006 124.334, 497.906 123.325 Q 498.816 122.305, 500.537 122.305 Q 502.138 122.305, 502.994 123.434 L 502.27 124.027 Q 501.645 123.204, 500.537 123.204 Q 499.364 123.204, 498.739 123.994 Q 498.125 124.772, 498.125 126.263 Q 498.125 127.799, 498.761 128.588 Q 499.408 129.378, 500.658 129.378 Q 501.513 129.378, 502.511 128.862 L 502.818 129.685 Q 502.412 129.948, 501.798 130.101 Q 501.184 130.255, 500.504 130.255 Q 498.816 130.255, 497.906 129.224 Q 497.006 128.193, 497.006 126.263 " fill="#00CC00"/>
<path class="atom-13" d="M 503.937 121.833 L 504.945 121.833 L 504.945 130.156 L 503.937 130.156 L 503.937 121.833 " fill="#00CC00"/>
<path class="atom-14" d="M 497.006 71.437 Q 497.006 69.5071, 497.906 68.4983 Q 498.816 67.4786, 500.537 67.4786 Q 502.138 67.4786, 502.994 68.608 L 502.27 69.2001 Q 501.645 68.3777, 500.537 68.3777 Q 499.364 68.3777, 498.739 69.1672 Q 498.125 69.9457, 498.125 71.437 Q 498.125 72.9722, 498.761 73.7617 Q 499.408 74.5512, 500.658 74.5512 Q 501.513 74.5512, 502.511 74.0358 L 502.818 74.8582 Q 502.412 75.1214, 501.798 75.2749 Q 501.184 75.4284, 500.504 75.4284 Q 498.816 75.4284, 497.906 74.3977 Q 497.006 73.3669, 497.006 71.437 " fill="#00CC00"/>
<path class="atom-14" d="M 503.937 67.0071 L 504.945 67.0071 L 504.945 75.3297 L 503.937 75.3297 L 503.937 67.0071 " fill="#00CC00"/>
<path class="bond-0 atom-0 atom-1" d="M 154.826,346.063 L 141.12,322.322" style="fill:none;fill-rule:evenodd;stroke:#000000;stroke-width:2.0px;stroke-linecap:butt;stroke-linejoin:miter;stroke-opacity:1"/>
<path class="bond-1 atom-1 atom-2" d="M 141.12,322.322 L 129.538,322.322" style="fill:none;fill-rule:evenodd;stroke:#000000;stroke-width:2.0px;stroke-linecap:butt;stroke-linejoin:miter;stroke-opacity:1"/>
<path class="bond-1 atom-1 atom-2" d="M 129.538,322.322 L 117.956,322.322" style="fill:none;fill-rule:evenodd;stroke:#FF0000;stroke-width:2.0px;stroke-linecap:butt;stroke-linejoin:miter;stroke-opacity:1"/>
<path class="bond-1 atom-1 atom-2" d="M 137.645,316.839 L 129.538,316.839" style="fill:none;fill-rule:evenodd;stroke:#000000;stroke-width:2.0px;stroke-linecap:butt;stroke-linejoin:miter;stroke-opacity:1"/>
<path class="bond-1 atom-1 atom-2" d="M 129.538,316.839 L 121.43,316.839" style="fill:none;fill-rule:evenodd;stroke:#FF0000;stroke-width:2.0px;stroke-linecap:butt;stroke-linejoin:miter;stroke-opacity:1"/>
<path class="bond-14 atom-7 atom-1" d="M 154.826,298.582 L 141.12,322.322" style="fill:none;fill-rule:evenodd;stroke:#000000;stroke-width:2.0px;stroke-linecap:butt;stroke-linejoin:miter;stroke-opacity:1"/>
<path class="bond-2 atom-2 atom-3" d="M 111.045,317.711 L 106.286,309.47" style="fill:none;fill-rule:evenodd;stroke:#FF0000;stroke-width:2.0px;stroke-linecap:butt;stroke-linejoin:miter;stroke-opacity:1"/>
<path class="bond-2 atom-2 atom-3" d="M 106.286,309.47 L 102.48,302.877" style="fill:none;fill-rule:evenodd;stroke:#000000;stroke-width:2.0px;stroke-linecap:butt;stroke-linejoin:miter;stroke-opacity:1"/>
<path class="bond-2 atom-2 atom-3" d="M 102.48,304.399 L 102.48,302.877 L 103.798,303.638 Z" style="fill:#000000;fill-rule:evenodd;fill-opacity:1;stroke:#000000;stroke-width:2.0px;stroke-linecap:butt;stroke-linejoin:miter;stroke-opacity:1;"/>
<path class="bond-3 atom-4 atom-3" d="M 110.975,279.573 L 106.25,287.757" style="fill:none;fill-rule:evenodd;stroke:#FF0000;stroke-width:2.0px;stroke-linecap:butt;stroke-linejoin:miter;stroke-opacity:1"/>
<path class="bond-3 atom-4 atom-3" d="M 106.25,287.757 L 102.47,294.304" style="fill:none;fill-rule:evenodd;stroke:#000000;stroke-width:2.0px;stroke-linecap:butt;stroke-linejoin:miter;stroke-opacity:1"/>
<path class="bond-3 atom-4 atom-3" d="M 103.779,293.548 L 102.47,294.304 L 102.47,292.792 Z" style="fill:#000000;fill-rule:evenodd;fill-opacity:1;stroke:#000000;stroke-width:2.0px;stroke-linecap:butt;stroke-linejoin:miter;stroke-opacity:1;"/>
<path class="bond-7 atom-8 atom-3" d="M 89.0251,279.573 L 93.2336,286.862" style="fill:none;fill-rule:evenodd;stroke:#FF0000;stroke-width:2.0px;stroke-linecap:butt;stroke-linejoin:miter;stroke-opacity:1"/>
<path class="bond-7 atom-8 atom-3" d="M 93.2336,286.862 L 96.6004,292.693" style="fill:none;fill-rule:evenodd;stroke:#000000;stroke-width:2.0px;stroke-linecap:butt;stroke-linejoin:miter;stroke-opacity:1"/>
<path class="bond-7 atom-8 atom-3" d="M 96.6004,291.347 L 96.6004,292.693 L 95.4341,292.02 Z" style="fill:#000000;fill-rule:evenodd;fill-opacity:1;stroke:#000000;stroke-width:2.0px;stroke-linecap:butt;stroke-linejoin:miter;stroke-opacity:1;"/>
<path class="bond-15 atom-14 atom-3" d="M 88.9555,317.711 L 93.1978,310.363" style="fill:none;fill-rule:evenodd;stroke:#FF0000;stroke-width:2.0px;stroke-linecap:butt;stroke-linejoin:miter;stroke-opacity:1"/>
<path class="bond-15 atom-14 atom-3" d="M 93.1978,310.363 L 96.5916,304.485" style="fill:none;fill-rule:evenodd;stroke:#000000;stroke-width:2.0px;stroke-linecap:butt;stroke-linejoin:miter;stroke-opacity:1"/>
<path class="bond-15 atom-14 atom-3" d="M 95.416,305.164 L 96.5916,304.485 L 96.5916,305.843 Z" style="fill:#000000;fill-rule:evenodd;fill-opacity:1;stroke:#000000;stroke-width:2.0px;stroke-linecap:butt;stroke-linejoin:miter;stroke-opacity:1;"/>
<path class="bond-4 atom-4 atom-5" d="M 117.956,274.841 L 129.538,274.841" style="fill:none;fill-rule:evenodd;stroke:#FF0000;stroke-width:2.0px;stroke-linecap:butt;stroke-linejoin:miter;stroke-opacity:1"/>
<path class="bond-4 atom-4 atom-5" d="M 129.538,274.841 L 141.12,274.841" style="fill:none;fill-rule:evenodd;stroke:#000000;stroke-width:2.0px;stroke-linecap:butt;stroke-linejoin:miter;stroke-opacity:1"/>
<path class="bond-4 atom-4 atom-5" d="M 121.43,280.324 L 129.538,280.324" style="fill:none;fill-rule:evenodd;stroke:#FF0000;stroke-width:2.0px;stroke-linecap:butt;stroke-linejoin:miter;stroke-opacity:1"/>
<path class="bond-4 atom-4 atom-5" d="M 129.538,280.324 L 137.645,280.324" style="fill:none;fill-rule:evenodd;stroke:#000000;stroke-width:2.0px;stroke-linecap:butt;stroke-linejoin:miter;stroke-opacity:1"/>
<path class="bond-5 atom-5 atom-6" d="M 141.12,274.841 L 154.826,251.101" style="fill:none;fill-rule:evenodd;stroke:#000000;stroke-width:2.0px;stroke-linecap:butt;stroke-linejoin:miter;stroke-opacity:1"/>
<path class="bond-6 atom-5 atom-7" d="M 141.12,274.841 L 154.826,298.582" style="fill:none;fill-rule:evenodd;stroke:#000000;stroke-width:2.0px;stroke-linecap:butt;stroke-linejoin:miter;stroke-opacity:1"/>
<path class="bond-8 atom-8 atom-9" d="M 82.0443,274.841 L 70.4623,274.841" style="fill:none;fill-rule:evenodd;stroke:#FF0000;stroke-width:2.0px;stroke-linecap:butt;stroke-linejoin:miter;stroke-opacity:1"/>
<path class="bond-8 atom-8 atom-9" d="M 70.4623,274.841 L 58.8802,274.841" style="fill:none;fill-rule:evenodd;stroke:#000000;stroke-width:2.0px;stroke-linecap:butt;stroke-linejoin:miter;stroke-opacity:1"/>
<path class="bond-8 atom-8 atom-9" d="M 78.5697,280.324 L 70.4623,280.324" style="fill:none;fill-rule:evenodd;stroke:#FF0000;stroke-width:2.0px;stroke-linecap:butt;stroke-linejoin:miter;stroke-opacity:1"/>
<path class="bond-8 atom-8 atom-9" d="M 70.4623,280.324 L 62.3548,280.324" style="fill:none;fill-rule:evenodd;stroke:#000000;stroke-width:2.0px;stroke-linecap:butt;stroke-linejoin:miter;stroke-opacity:1"/>
<path class="bond-9 atom-9 atom-10" d="M 58.8802,274.841 L 45.1736,251.101" style="fill:none;fill-rule:evenodd;stroke:#000000;stroke-width:2.0px;stroke-linecap:butt;stroke-linejoin:miter;stroke-opacity:1"/>
<path class="bond-10 atom-9 atom-11" d="M 58.8802,274.841 L 45.1736,298.582" style="fill:none;fill-rule:evenodd;stroke:#000000;stroke-width:2.0px;stroke-linecap:butt;stroke-linejoin:miter;stroke-opacity:1"/>
<path class="bond-11 atom-11 atom-12" d="M 45.1736,298.582 L 58.8802,322.322" style="fill:none;fill-rule:evenodd;stroke:#000000;stroke-width:2.0px;stroke-linecap:butt;stroke-linejoin:miter;stroke-opacity:1"/>
<path class="bond-12 atom-12 atom-13" d="M 58.8802,322.322 L 45.1736,346.063" style="fill:none;fill-rule:evenodd;stroke:#000000;stroke-width:2.0px;stroke-linecap:butt;stroke-linejoin:miter;stroke-opacity:1"/>
<path class="bond-13 atom-12 atom-14" d="M 58.8802,322.322 L 70.4623,322.322" style="fill:none;fill-rule:evenodd;stroke:#000000;stroke-width:2.0px;stroke-linecap:butt;stroke-linejoin:miter;stroke-opacity:1"/>
<path class="bond-13 atom-12 atom-14" d="M 70.4623,322.322 L 82.0443,322.322" style="fill:none;fill-rule:evenodd;stroke:#FF0000;stroke-width:2.0px;stroke-linecap:butt;stroke-linejoin:miter;stroke-opacity:1"/>
<path class="bond-13 atom-12 atom-14" d="M 62.3548,316.839 L 70.4623,316.839" style="fill:none;fill-rule:evenodd;stroke:#000000;stroke-width:2.0px;stroke-linecap:butt;stroke-linejoin:miter;stroke-opacity:1"/>
<path class="bond-13 atom-12 atom-14" d="M 70.4623,316.839 L 78.5697,316.839" style="fill:none;fill-rule:evenodd;stroke:#FF0000;stroke-width:2.0px;stroke-linecap:butt;stroke-linejoin:miter;stroke-opacity:1"/>
<path class="atom-2" d="M 110.143 322.344 Q 110.143 320.48, 111.064 319.438 Q 111.985 318.397, 113.707 318.397 Q 115.428 318.397, 116.349 319.438 Q 117.27 320.48, 117.27 322.344 Q 117.27 324.23, 116.338 325.305 Q 115.406 326.368, 113.707 326.368 Q 111.996 326.368, 111.064 325.305 Q 110.143 324.241, 110.143 322.344 M 113.707 325.491 Q 114.891 325.491, 115.527 324.702 Q 116.174 323.901, 116.174 322.344 Q 116.174 320.82, 115.527 320.052 Q 114.891 319.274, 113.707 319.274 Q 112.522 319.274, 111.875 320.041 Q 111.239 320.809, 111.239 322.344 Q 111.239 323.912, 111.875 324.702 Q 112.522 325.491, 113.707 325.491 " fill="#FF0000"/>
<path class="atom-3" d="M 94.3638 294.7 L 96.9078 298.812 Q 97.16 299.218, 97.5657 299.952 Q 97.9714 300.687, 97.9934 300.731 L 97.9934 294.7 L 99.0241 294.7 L 99.0241 302.463 L 97.9605 302.463 L 95.2301 297.968 Q 94.9121 297.441, 94.5722 296.838 Q 94.2432 296.235, 94.1445 296.049 L 94.1445 302.463 L 93.1357 302.463 L 93.1357 294.7 L 94.3638 294.7 " fill="#000000"/>
<path class="atom-3" d="M 99.9671 294.7 L 100.976 294.7 L 100.976 295.654 L 99.9671 295.654 L 99.9671 294.7 M 99.9671 296.827 L 100.976 296.827 L 100.976 302.463 L 99.9671 302.463 L 99.9671 296.827 " fill="#000000"/>
<path class="atom-4" d="M 110.143 274.863 Q 110.143 272.999, 111.064 271.957 Q 111.985 270.915, 113.707 270.915 Q 115.428 270.915, 116.349 271.957 Q 117.27 272.999, 117.27 274.863 Q 117.27 276.749, 116.338 277.824 Q 115.406 278.887, 113.707 278.887 Q 111.996 278.887, 111.064 277.824 Q 110.143 276.76, 110.143 274.863 M 113.707 278.01 Q 114.891 278.01, 115.527 277.221 Q 116.174 276.42, 116.174 274.863 Q 116.174 273.339, 115.527 272.571 Q 114.891 271.793, 113.707 271.793 Q 112.522 271.793, 111.875 272.56 Q 111.239 273.328, 111.239 274.863 Q 111.239 276.431, 111.875 277.221 Q 112.522 278.01, 113.707 278.01 " fill="#FF0000"/>
<path class="atom-8" d="M 82.7297 274.863 Q 82.7297 272.999, 83.6508 271.957 Q 84.5718 270.915, 86.2934 270.915 Q 88.0149 270.915, 88.936 271.957 Q 89.8571 272.999, 89.8571 274.863 Q 89.8571 276.749, 88.9251 277.824 Q 87.993 278.887, 86.2934 278.887 Q 84.5828 278.887, 83.6508 277.824 Q 82.7297 276.76, 82.7297 274.863 M 86.2934 278.01 Q 87.4776 278.01, 88.1136 277.221 Q 88.7606 276.42, 88.7606 274.863 Q 88.7606 273.339, 88.1136 272.571 Q 87.4776 271.793, 86.2934 271.793 Q 85.1091 271.793, 84.4622 272.56 Q 83.8262 273.328, 83.8262 274.863 Q 83.8262 276.431, 84.4622 277.221 Q 85.1091 278.01, 86.2934 278.01 " fill="#FF0000"/>
<path class="atom-14" d="M 82.7297 322.344 Q 82.7297 320.48, 83.6508 319.438 Q 84.5718 318.397, 86.2934 318.397 Q 88.0149 318.397, 88.936 319.438 Q 89.8571 320.48, 89.8571 322.344 Q 89.8571 324.23, 88.9251 325.305 Q 87.993 326.368, 86.2934 326.368 Q 84.5828 326.368, 83.6508 325.305 Q 82.7297 324.241, 82.7297 322.344 M 86.2934 325.491 Q 87.4776 325.491, 88.1136 324.702 Q 88.7606 323.901, 88.7606 322.344 Q 88.7606 320.82, 88.1136 320.052 Q 87.4776 319.274, 86.2934 319.274 Q 85.1091 319.274, 84.4622 320.041 Q 83.8262 320.809, 83.8262 322.344 Q 83.8262 323.912, 84.4622 324.702 Q 85.1091 325.491, 86.2934 325.491 " fill="#FF0000"/>
<path class="bond-0 atom-0 atom-1" d="M 272.587,271.168 L 272.587,282.591" style="fill:none;fill-rule:evenodd;stroke:#000000;stroke-width:2.0px;stroke-linecap:butt;stroke-linejoin:miter;stroke-opacity:1"/>
<path class="bond-0 atom-0 atom-1" d="M 272.587,282.591 L 272.587,294.015" style="fill:none;fill-rule:evenodd;stroke:#FF7F00;stroke-width:2.0px;stroke-linecap:butt;stroke-linejoin:miter;stroke-opacity:1"/>
<path class="bond-1 atom-1 atom-2" d="M 272.587,303.149 L 272.587,314.572" style="fill:none;fill-rule:evenodd;stroke:#FF7F00;stroke-width:2.0px;stroke-linecap:butt;stroke-linejoin:miter;stroke-opacity:1"/>
<path class="bond-1 atom-1 atom-2" d="M 272.587,314.572 L 272.587,325.995" style="fill:none;fill-rule:evenodd;stroke:#000000;stroke-width:2.0px;stroke-linecap:butt;stroke-linejoin:miter;stroke-opacity:1"/>
<path class="bond-2 atom-1 atom-3" d="M 269.423,298.582 L 257.298,298.582" style="fill:none;fill-rule:evenodd;stroke:#FF7F00;stroke-width:2.0px;stroke-linecap:butt;stroke-linejoin:miter;stroke-opacity:1"/>
<path class="bond-2 atom-1 atom-3" d="M 257.298,298.582 L 245.174,298.582" style="fill:none;fill-rule:evenodd;stroke:#000000;stroke-width:2.0px;stroke-linecap:butt;stroke-linejoin:miter;stroke-opacity:1"/>
<path class="bond-3 atom-1 atom-4" d="M 275.75,298.582 L 284.14,298.582" style="fill:none;fill-rule:evenodd;stroke:#FF7F00;stroke-width:2.0px;stroke-linecap:butt;stroke-linejoin:miter;stroke-opacity:1"/>
<path class="bond-3 atom-1 atom-4" d="M 284.14,298.582 L 290.852,298.582" style="fill:none;fill-rule:evenodd;stroke:#000000;stroke-width:2.0px;stroke-linecap:butt;stroke-linejoin:miter;stroke-opacity:1"/>
<path class="bond-3 atom-1 atom-4" d="M 289.689,297.91 L 290.852,298.582 L 289.689,299.253 Z" style="fill:#000000;fill-rule:evenodd;fill-opacity:1;stroke:#000000;stroke-width:2.0px;stroke-linecap:butt;stroke-linejoin:miter;stroke-opacity:1;"/>
<path class="bond-4 atom-5 atom-4" d="M 324.25,298.582 L 312.916,298.582" style="fill:none;fill-rule:evenodd;stroke:#FF7F00;stroke-width:2.0px;stroke-linecap:butt;stroke-linejoin:miter;stroke-opacity:1"/>
<path class="bond-4 atom-5 atom-4" d="M 312.916,298.582 L 303.849,298.582" style="fill:none;fill-rule:evenodd;stroke:#000000;stroke-width:2.0px;stroke-linecap:butt;stroke-linejoin:miter;stroke-opacity:1"/>
<path class="bond-4 atom-5 atom-4" d="M 305.419,299.488 L 303.849,298.582 L 305.419,297.675 Z" style="fill:#000000;fill-rule:evenodd;fill-opacity:1;stroke:#000000;stroke-width:2.0px;stroke-linecap:butt;stroke-linejoin:miter;stroke-opacity:1;"/>
<path class="bond-8 atom-4 atom-9" d="M 300,303.149 L 300,312.441" style="fill:none;fill-rule:evenodd;stroke:#000000;stroke-width:2.0px;stroke-linecap:butt;stroke-linejoin:miter;stroke-opacity:1"/>
<path class="bond-8 atom-4 atom-9" d="M 300,312.441 L 300,321.734" style="fill:none;fill-rule:evenodd;stroke:#00CC00;stroke-width:2.0px;stroke-linecap:butt;stroke-linejoin:miter;stroke-opacity:1"/>
<path class="bond-9 atom-4 atom-10" d="M 300,294.015 L 300,285.007" style="fill:none;fill-rule:evenodd;stroke:#000000;stroke-width:2.0px;stroke-linecap:butt;stroke-linejoin:miter;stroke-opacity:1"/>
<path class="bond-9 atom-4 atom-10" d="M 300,285.007 L 300,276" style="fill:none;fill-rule:evenodd;stroke:#00CC00;stroke-width:2.0px;stroke-linecap:butt;stroke-linejoin:miter;stroke-opacity:1"/>
<path class="bond-5 atom-5 atom-6" d="M 327.413,294.015 L 327.413,282.591" style="fill:none;fill-rule:evenodd;stroke:#FF7F00;stroke-width:2.0px;stroke-linecap:butt;stroke-linejoin:miter;stroke-opacity:1"/>
<path class="bond-5 atom-5 atom-6" d="M 327.413,282.591 L 327.413,271.168" style="fill:none;fill-rule:evenodd;stroke:#000000;stroke-width:2.0px;stroke-linecap:butt;stroke-linejoin:miter;stroke-opacity:1"/>
<path class="bond-6 atom-5 atom-7" d="M 327.413,303.149 L 327.413,314.572" style="fill:none;fill-rule:evenodd;stroke:#FF7F00;stroke-width:2.0px;stroke-linecap:butt;stroke-linejoin:miter;stroke-opacity:1"/>
<path class="bond-6 atom-5 atom-7" d="M 327.413,314.572 L 327.413,325.995" style="fill:none;fill-rule:evenodd;stroke:#000000;stroke-width:2.0px;stroke-linecap:butt;stroke-linejoin:miter;stroke-opacity:1"/>
<path class="bond-7 atom-5 atom-8" d="M 330.577,298.582 L 342.702,298.582" style="fill:none;fill-rule:evenodd;stroke:#FF7F00;stroke-width:2.0px;stroke-linecap:butt;stroke-linejoin:miter;stroke-opacity:1"/>
<path class="bond-7 atom-5 atom-8" d="M 342.702,298.582 L 354.826,298.582" style="fill:none;fill-rule:evenodd;stroke:#000000;stroke-width:2.0px;stroke-linecap:butt;stroke-linejoin:miter;stroke-opacity:1"/>
<path class="atom-1" d="M 272.4 294.7 Q 273.727 294.7, 274.396 295.303 Q 275.065 295.895, 275.065 296.981 Q 275.065 298.055, 274.374 298.669 Q 273.694 299.272, 272.4 299.272 L 271.161 299.272 L 271.161 302.463 L 270.109 302.463 L 270.109 294.7 L 272.4 294.7 M 272.4 298.395 Q 273.157 298.395, 273.563 298.033 Q 273.968 297.671, 273.968 296.981 Q 273.968 296.29, 273.563 295.939 Q 273.168 295.577, 272.4 295.577 L 271.161 295.577 L 271.161 298.395 L 272.4 298.395 " fill="#FF7F00"/>
<path class="atom-4" d="M 294.364 294.7 L 296.908 298.812 Q 297.16 299.218, 297.566 299.952 Q 297.971 300.687, 297.993 300.731 L 297.993 294.7 L 299.024 294.7 L 299.024 302.463 L 297.96 302.463 L 295.23 297.968 Q 294.912 297.441, 294.572 296.838 Q 294.243 296.235, 294.145 296.049 L 294.145 302.463 L 293.136 302.463 L 293.136 294.7 L 294.364 294.7 " fill="#000000"/>
<path class="atom-4" d="M 299.967 294.7 L 300.976 294.7 L 300.976 295.654 L 299.967 295.654 L 299.967 294.7 M 299.967 296.827 L 300.976 296.827 L 300.976 302.463 L 299.967 302.463 L 299.967 296.827 " fill="#000000"/>
<path class="atom-5" d="M 327.227 294.7 Q 328.554 294.7, 329.222 295.303 Q 329.891 295.895, 329.891 296.981 Q 329.891 298.055, 329.201 298.669 Q 328.521 299.272, 327.227 299.272 L 325.988 299.272 L 325.988 302.463 L 324.935 302.463 L 324.935 294.7 L 327.227 294.7 M 327.227 298.395 Q 327.983 298.395, 328.389 298.033 Q 328.795 297.671, 328.795 296.981 Q 328.795 296.29, 328.389 295.939 Q 327.994 295.577, 327.227 295.577 L 325.988 295.577 L 325.988 298.395 L 327.227 298.395 " fill="#FF7F00"/>
<path class="atom-9" d="M 297.006 326.263 Q 297.006 324.334, 297.906 323.325 Q 298.816 322.305, 300.537 322.305 Q 302.138 322.305, 302.994 323.434 L 302.27 324.027 Q 301.645 323.204, 300.537 323.204 Q 299.364 323.204, 298.739 323.994 Q 298.125 324.772, 298.125 326.263 Q 298.125 327.799, 298.761 328.588 Q 299.408 329.378, 300.658 329.378 Q 301.513 329.378, 302.511 328.862 L 302.818 329.685 Q 302.412 329.948, 301.798 330.101 Q 301.184 330.255, 300.504 330.255 Q 298.816 330.255, 297.906 329.224 Q 297.006 328.193, 297.006 326.263 " fill="#00CC00"/>
<path class="atom-9" d="M 303.937 321.833 L 304.945 321.833 L 304.945 330.156 L 303.937 330.156 L 303.937 321.833 " fill="#00CC00"/>
<path class="atom-10" d="M 297.006 271.437 Q 297.006 269.507, 297.906 268.498 Q 298.816 267.479, 300.537 267.479 Q 302.138 267.479, 302.994 268.608 L 302.27 269.2 Q 301.645 268.378, 300.537 268.378 Q 299.364 268.378, 298.739 269.167 Q 298.125 269.946, 298.125 271.437 Q 298.125 272.972, 298.761 273.762 Q 299.408 274.551, 300.658 274.551 Q 301.513 274.551, 302.511 274.036 L 302.818 274.858 Q 302.412 275.121, 301.798 275.275 Q 301.184 275.428, 300.504 275.428 Q 298.816 275.428, 297.906 274.398 Q 297.006 273.367, 297.006 271.437 " fill="#00CC00"/>
<path class="atom-10" d="M 303.937 267.007 L 304.945 267.007 L 304.945 275.33 L 303.937 275.33 L 303.937 267.007 " fill="#00CC00"/>
<path class="bond-0 atom-0 atom-1" d="M 451.008,314.64 L 432.665,294.268" style="fill:none;fill-rule:evenodd;stroke:#000000;stroke-width:2.0px;stroke-linecap:butt;stroke-linejoin:miter;stroke-opacity:1"/>
<path class="bond-0 atom-0 atom-1" d="M 452.331,307.915 L 439.491,293.655" style="fill:none;fill-rule:evenodd;stroke:#000000;stroke-width:2.0px;stroke-linecap:butt;stroke-linejoin:miter;stroke-opacity:1"/>
<path class="bond-14 atom-5 atom-0" d="M 474.193,309.712 L 462.6,312.176" style="fill:none;fill-rule:evenodd;stroke:#0000FF;stroke-width:2.0px;stroke-linecap:butt;stroke-linejoin:miter;stroke-opacity:1"/>
<path class="bond-14 atom-5 atom-0" d="M 462.6,312.176 L 451.008,314.64" style="fill:none;fill-rule:evenodd;stroke:#000000;stroke-width:2.0px;stroke-linecap:butt;stroke-linejoin:miter;stroke-opacity:1"/>
<path class="bond-1 atom-1 atom-2" d="M 432.665,294.268 L 441.136,268.196" style="fill:none;fill-rule:evenodd;stroke:#000000;stroke-width:2.0px;stroke-linecap:butt;stroke-linejoin:miter;stroke-opacity:1"/>
<path class="bond-2 atom-2 atom-3" d="M 441.136,268.196 L 467.95,262.497" style="fill:none;fill-rule:evenodd;stroke:#000000;stroke-width:2.0px;stroke-linecap:butt;stroke-linejoin:miter;stroke-opacity:1"/>
<path class="bond-2 atom-2 atom-3" d="M 446.298,272.704 L 465.068,268.715" style="fill:none;fill-rule:evenodd;stroke:#000000;stroke-width:2.0px;stroke-linecap:butt;stroke-linejoin:miter;stroke-opacity:1"/>
<path class="bond-3 atom-3 atom-4" d="M 467.95,262.497 L 486.293,282.869" style="fill:none;fill-rule:evenodd;stroke:#000000;stroke-width:2.0px;stroke-linecap:butt;stroke-linejoin:miter;stroke-opacity:1"/>
<path class="bond-4 atom-4 atom-5" d="M 486.293,282.869 L 482.8,293.621" style="fill:none;fill-rule:evenodd;stroke:#000000;stroke-width:2.0px;stroke-linecap:butt;stroke-linejoin:miter;stroke-opacity:1"/>
<path class="bond-4 atom-4 atom-5" d="M 482.8,293.621 L 479.306,304.373" style="fill:none;fill-rule:evenodd;stroke:#0000FF;stroke-width:2.0px;stroke-linecap:butt;stroke-linejoin:miter;stroke-opacity:1"/>
<path class="bond-4 atom-4 atom-5" d="M 480.031,284.4 L 477.585,291.927" style="fill:none;fill-rule:evenodd;stroke:#000000;stroke-width:2.0px;stroke-linecap:butt;stroke-linejoin:miter;stroke-opacity:1"/>
<path class="bond-4 atom-4 atom-5" d="M 477.585,291.927 L 475.14,299.453" style="fill:none;fill-rule:evenodd;stroke:#0000FF;stroke-width:2.0px;stroke-linecap:butt;stroke-linejoin:miter;stroke-opacity:1"/>
<path class="bond-16 atom-10 atom-4" d="M 513.707,282.869 L 486.293,282.869" style="fill:none;fill-rule:evenodd;stroke:#000000;stroke-width:2.0px;stroke-linecap:butt;stroke-linejoin:miter;stroke-opacity:1"/>
<path class="bond-5 atom-5 atom-6" d="M 481.452,311.577 L 487.66,316.088" style="fill:none;fill-rule:evenodd;stroke:#0000FF;stroke-width:2.0px;stroke-linecap:butt;stroke-linejoin:miter;stroke-opacity:1"/>
<path class="bond-5 atom-5 atom-6" d="M 487.66,316.088 L 492.627,319.696" style="fill:none;fill-rule:evenodd;stroke:#000000;stroke-width:2.0px;stroke-linecap:butt;stroke-linejoin:miter;stroke-opacity:1"/>
<path class="bond-5 atom-5 atom-6" d="M 492.127,318.575 L 492.627,319.696 L 491.406,319.568 Z" style="fill:#000000;fill-rule:evenodd;fill-opacity:1;stroke:#000000;stroke-width:2.0px;stroke-linecap:butt;stroke-linejoin:miter;stroke-opacity:1;"/>
<path class="bond-6 atom-6 atom-7" d="M 495.888,329.62 L 489.846,336.33" style="fill:none;fill-rule:evenodd;stroke:#000000;stroke-width:2.0px;stroke-linecap:butt;stroke-linejoin:miter;stroke-opacity:1"/>
<path class="bond-6 atom-6 atom-7" d="M 489.846,336.33 L 483.804,343.041" style="fill:none;fill-rule:evenodd;stroke:#7F4C19;stroke-width:2.0px;stroke-linecap:butt;stroke-linejoin:miter;stroke-opacity:1"/>
<path class="bond-7 atom-6 atom-8" d="M 501.661,326.898 L 508.372,334.351" style="fill:none;fill-rule:evenodd;stroke:#000000;stroke-width:2.0px;stroke-linecap:butt;stroke-linejoin:miter;stroke-opacity:1"/>
<path class="bond-7 atom-6 atom-8" d="M 508.372,334.351 L 515.083,341.804" style="fill:none;fill-rule:evenodd;stroke:#7F4C19;stroke-width:2.0px;stroke-linecap:butt;stroke-linejoin:miter;stroke-opacity:1"/>
<path class="bond-8 atom-9 atom-6" d="M 518.548,311.577 L 510.049,317.753" style="fill:none;fill-rule:evenodd;stroke:#0000FF;stroke-width:2.0px;stroke-linecap:butt;stroke-linejoin:miter;stroke-opacity:1"/>
<path class="bond-8 atom-9 atom-6" d="M 510.049,317.753 L 503.249,322.693" style="fill:none;fill-rule:evenodd;stroke:#000000;stroke-width:2.0px;stroke-linecap:butt;stroke-linejoin:miter;stroke-opacity:1"/>
<path class="bond-8 atom-9 atom-6" d="M 504.921,322.517 L 503.249,322.693 L 503.933,321.157 Z" style="fill:#000000;fill-rule:evenodd;fill-opacity:1;stroke:#000000;stroke-width:2.0px;stroke-linecap:butt;stroke-linejoin:miter;stroke-opacity:1;"/>
<path class="bond-9 atom-9 atom-10" d="M 520.694,304.373 L 517.2,293.621" style="fill:none;fill-rule:evenodd;stroke:#0000FF;stroke-width:2.0px;stroke-linecap:butt;stroke-linejoin:miter;stroke-opacity:1"/>
<path class="bond-9 atom-9 atom-10" d="M 517.2,293.621 L 513.707,282.869" style="fill:none;fill-rule:evenodd;stroke:#000000;stroke-width:2.0px;stroke-linecap:butt;stroke-linejoin:miter;stroke-opacity:1"/>
<path class="bond-9 atom-9 atom-10" d="M 524.86,299.453 L 522.415,291.927" style="fill:none;fill-rule:evenodd;stroke:#0000FF;stroke-width:2.0px;stroke-linecap:butt;stroke-linejoin:miter;stroke-opacity:1"/>
<path class="bond-9 atom-9 atom-10" d="M 522.415,291.927 L 519.969,284.4" style="fill:none;fill-rule:evenodd;stroke:#000000;stroke-width:2.0px;stroke-linecap:butt;stroke-linejoin:miter;stroke-opacity:1"/>
<path class="bond-15 atom-14 atom-9" d="M 548.992,314.64 L 537.4,312.176" style="fill:none;fill-rule:evenodd;stroke:#000000;stroke-width:2.0px;stroke-linecap:butt;stroke-linejoin:miter;stroke-opacity:1"/>
<path class="bond-15 atom-14 atom-9" d="M 537.4,312.176 L 525.807,309.712" style="fill:none;fill-rule:evenodd;stroke:#0000FF;stroke-width:2.0px;stroke-linecap:butt;stroke-linejoin:miter;stroke-opacity:1"/>
<path class="bond-10 atom-10 atom-11" d="M 513.707,282.869 L 532.05,262.497" style="fill:none;fill-rule:evenodd;stroke:#000000;stroke-width:2.0px;stroke-linecap:butt;stroke-linejoin:miter;stroke-opacity:1"/>
<path class="bond-11 atom-11 atom-12" d="M 532.05,262.497 L 558.864,268.196" style="fill:none;fill-rule:evenodd;stroke:#000000;stroke-width:2.0px;stroke-linecap:butt;stroke-linejoin:miter;stroke-opacity:1"/>
<path class="bond-11 atom-11 atom-12" d="M 534.932,268.715 L 553.702,272.704" style="fill:none;fill-rule:evenodd;stroke:#000000;stroke-width:2.0px;stroke-linecap:butt;stroke-linejoin:miter;stroke-opacity:1"/>
<path class="bond-12 atom-12 atom-13" d="M 558.864,268.196 L 567.335,294.268" style="fill:none;fill-rule:evenodd;stroke:#000000;stroke-width:2.0px;stroke-linecap:butt;stroke-linejoin:miter;stroke-opacity:1"/>
<path class="bond-13 atom-13 atom-14" d="M 567.335,294.268 L 548.992,314.64" style="fill:none;fill-rule:evenodd;stroke:#000000;stroke-width:2.0px;stroke-linecap:butt;stroke-linejoin:miter;stroke-opacity:1"/>
<path class="bond-13 atom-13 atom-14" d="M 560.509,293.655 L 547.669,307.915" style="fill:none;fill-rule:evenodd;stroke:#000000;stroke-width:2.0px;stroke-linecap:butt;stroke-linejoin:miter;stroke-opacity:1"/>
<path class="atom-5" d="M 476.106 305.059 L 478.65 309.171 Q 478.902 309.576, 479.308 310.311 Q 479.714 311.046, 479.736 311.089 L 479.736 305.059 L 480.766 305.059 L 480.766 312.822 L 479.703 312.822 L 476.972 308.326 Q 476.654 307.8, 476.315 307.197 Q 475.986 306.594, 475.887 306.407 L 475.887 312.822 L 474.878 312.822 L 474.878 305.059 L 476.106 305.059 " fill="#0000FF"/>
<path class="atom-6" d="M 494.364 321.172 L 496.908 325.284 Q 497.16 325.689, 497.566 326.424 Q 497.971 327.159, 497.993 327.203 L 497.993 321.172 L 499.024 321.172 L 499.024 328.935 L 497.96 328.935 L 495.23 324.439 Q 494.912 323.913, 494.572 323.31 Q 494.243 322.707, 494.145 322.52 L 494.145 328.935 L 493.136 328.935 L 493.136 321.172 L 494.364 321.172 " fill="#000000"/>
<path class="atom-6" d="M 499.967 321.172 L 500.976 321.172 L 500.976 322.126 L 499.967 322.126 L 499.967 321.172 M 499.967 323.299 L 500.976 323.299 L 500.976 328.935 L 499.967 328.935 L 499.967 323.299 " fill="#000000"/>
<path class="atom-7" d="M 477.605 345.228 Q 478.351 345.436, 478.724 345.897 Q 479.108 346.346, 479.108 347.015 Q 479.108 348.09, 478.417 348.704 Q 477.737 349.307, 476.443 349.307 L 473.833 349.307 L 473.833 341.544 L 476.125 341.544 Q 477.452 341.544, 478.121 342.081 Q 478.79 342.618, 478.79 343.605 Q 478.79 344.778, 477.605 345.228 M 474.875 342.421 L 474.875 344.855 L 476.125 344.855 Q 476.893 344.855, 477.287 344.548 Q 477.693 344.23, 477.693 343.605 Q 477.693 342.421, 476.125 342.421 L 474.875 342.421 M 476.443 348.43 Q 477.2 348.43, 477.605 348.068 Q 478.011 347.706, 478.011 347.015 Q 478.011 346.379, 477.561 346.061 Q 477.123 345.732, 476.279 345.732 L 474.875 345.732 L 474.875 348.43 L 476.443 348.43 " fill="#7F4C19"/>
<path class="atom-7" d="M 480.873 343.671 L 480.994 344.449 Q 481.586 343.572, 482.551 343.572 Q 482.858 343.572, 483.274 343.682 L 483.11 344.603 Q 482.638 344.493, 482.375 344.493 Q 481.915 344.493, 481.608 344.68 Q 481.312 344.855, 481.07 345.283 L 481.07 349.307 L 480.04 349.307 L 480.04 343.671 L 480.873 343.671 " fill="#7F4C19"/>
<path class="atom-8" d="M 519.478 345.228 Q 520.224 345.436, 520.596 345.897 Q 520.98 346.346, 520.98 347.015 Q 520.98 348.09, 520.289 348.704 Q 519.61 349.307, 518.316 349.307 L 515.706 349.307 L 515.706 341.544 L 517.998 341.544 Q 519.324 341.544, 519.993 342.081 Q 520.662 342.618, 520.662 343.605 Q 520.662 344.778, 519.478 345.228 M 516.748 342.421 L 516.748 344.855 L 517.998 344.855 Q 518.765 344.855, 519.16 344.548 Q 519.566 344.23, 519.566 343.605 Q 519.566 342.421, 517.998 342.421 L 516.748 342.421 M 518.316 348.43 Q 519.072 348.43, 519.478 348.068 Q 519.884 347.706, 519.884 347.015 Q 519.884 346.379, 519.434 346.061 Q 518.995 345.732, 518.151 345.732 L 516.748 345.732 L 516.748 348.43 L 518.316 348.43 " fill="#7F4C19"/>
<path class="atom-8" d="M 522.746 343.671 L 522.866 344.449 Q 523.458 343.572, 524.423 343.572 Q 524.73 343.572, 525.147 343.682 L 524.983 344.603 Q 524.511 344.493, 524.248 344.493 Q 523.787 344.493, 523.48 344.68 Q 523.184 344.855, 522.943 345.283 L 522.943 349.307 L 521.912 349.307 L 521.912 343.671 L 522.746 343.671 " fill="#7F4C19"/>
<path class="atom-9" d="M 520.462 305.059 L 523.006 309.171 Q 523.258 309.576, 523.664 310.311 Q 524.069 311.046, 524.091 311.089 L 524.091 305.059 L 525.122 305.059 L 525.122 312.822 L 524.058 312.822 L 521.328 308.326 Q 521.01 307.8, 520.67 307.197 Q 520.341 306.594, 520.242 306.407 L 520.242 312.822 L 519.234 312.822 L 519.234 305.059 L 520.462 305.059 " fill="#0000FF"/>
<path class="bond-0 atom-0 atom-1" d="M 153.791,523.615 L 159.325,514.028" style="fill:none;fill-rule:evenodd;stroke:#33CCCC;stroke-width:2.0px;stroke-linecap:butt;stroke-linejoin:miter;stroke-opacity:1"/>
<path class="bond-0 atom-0 atom-1" d="M 159.325,514.028 L 164.86,504.442" style="fill:none;fill-rule:evenodd;stroke:#000000;stroke-width:2.0px;stroke-linecap:butt;stroke-linejoin:miter;stroke-opacity:1"/>
<path class="bond-1 atom-1 atom-2" d="M 164.86,504.442 L 170.395,494.855" style="fill:none;fill-rule:evenodd;stroke:#000000;stroke-width:2.0px;stroke-linecap:butt;stroke-linejoin:miter;stroke-opacity:1"/>
<path class="bond-1 atom-1 atom-2" d="M 170.395,494.855 L 175.93,485.268" style="fill:none;fill-rule:evenodd;stroke:#33CCCC;stroke-width:2.0px;stroke-linecap:butt;stroke-linejoin:miter;stroke-opacity:1"/>
<path class="bond-2 atom-1 atom-3" d="M 164.86,504.442 L 175.234,510.431" style="fill:none;fill-rule:evenodd;stroke:#000000;stroke-width:2.0px;stroke-linecap:butt;stroke-linejoin:miter;stroke-opacity:1"/>
<path class="bond-2 atom-1 atom-3" d="M 175.234,510.431 L 185.607,516.42" style="fill:none;fill-rule:evenodd;stroke:#33CCCC;stroke-width:2.0px;stroke-linecap:butt;stroke-linejoin:miter;stroke-opacity:1"/>
<path class="bond-3 atom-1 atom-4" d="M 164.86,504.442 L 154.577,498.505" style="fill:none;fill-rule:evenodd;stroke:#000000;stroke-width:2.0px;stroke-linecap:butt;stroke-linejoin:miter;stroke-opacity:1"/>
<path class="bond-3 atom-1 atom-4" d="M 154.577,498.505 L 144.294,492.568" style="fill:none;fill-rule:evenodd;stroke:#CCCC00;stroke-width:2.0px;stroke-linecap:butt;stroke-linejoin:miter;stroke-opacity:1"/>
<path class="bond-4 atom-4 atom-5" d="M 139.316,486.528 L 131.112,481.791" style="fill:none;fill-rule:evenodd;stroke:#CCCC00;stroke-width:2.0px;stroke-linecap:butt;stroke-linejoin:miter;stroke-opacity:1"/>
<path class="bond-4 atom-4 atom-5" d="M 131.112,481.791 L 122.907,477.055" style="fill:none;fill-rule:evenodd;stroke:#FF0000;stroke-width:2.0px;stroke-linecap:butt;stroke-linejoin:miter;stroke-opacity:1"/>
<path class="bond-4 atom-4 atom-5" d="M 136.575,491.276 L 128.37,486.539" style="fill:none;fill-rule:evenodd;stroke:#CCCC00;stroke-width:2.0px;stroke-linecap:butt;stroke-linejoin:miter;stroke-opacity:1"/>
<path class="bond-4 atom-4 atom-5" d="M 128.37,486.539 L 120.166,481.803" style="fill:none;fill-rule:evenodd;stroke:#FF0000;stroke-width:2.0px;stroke-linecap:butt;stroke-linejoin:miter;stroke-opacity:1"/>
<path class="bond-5 atom-4 atom-6" d="M 146.124,487.55 L 150.334,480.257" style="fill:none;fill-rule:evenodd;stroke:#CCCC00;stroke-width:2.0px;stroke-linecap:butt;stroke-linejoin:miter;stroke-opacity:1"/>
<path class="bond-5 atom-4 atom-6" d="M 150.334,480.257 L 154.545,472.965" style="fill:none;fill-rule:evenodd;stroke:#FF0000;stroke-width:2.0px;stroke-linecap:butt;stroke-linejoin:miter;stroke-opacity:1"/>
<path class="bond-5 atom-4 atom-6" d="M 141.376,484.808 L 145.586,477.516" style="fill:none;fill-rule:evenodd;stroke:#CCCC00;stroke-width:2.0px;stroke-linecap:butt;stroke-linejoin:miter;stroke-opacity:1"/>
<path class="bond-5 atom-4 atom-6" d="M 145.586,477.516 L 149.797,470.224" style="fill:none;fill-rule:evenodd;stroke:#FF0000;stroke-width:2.0px;stroke-linecap:butt;stroke-linejoin:miter;stroke-opacity:1"/>
<path class="bond-6 atom-4 atom-7" d="M 138.369,495.499 L 134.182,502.751" style="fill:none;fill-rule:evenodd;stroke:#CCCC00;stroke-width:2.0px;stroke-linecap:butt;stroke-linejoin:miter;stroke-opacity:1"/>
<path class="bond-6 atom-4 atom-7" d="M 134.182,502.751 L 129.996,510.002" style="fill:none;fill-rule:evenodd;stroke:#FF0000;stroke-width:2.0px;stroke-linecap:butt;stroke-linejoin:miter;stroke-opacity:1"/>
<path class="bond-7 atom-7 atom-8" d="M 123.164,514.475 L 112.36,514.475" style="fill:none;fill-rule:evenodd;stroke:#FF0000;stroke-width:2.0px;stroke-linecap:butt;stroke-linejoin:miter;stroke-opacity:1"/>
<path class="bond-7 atom-7 atom-8" d="M 112.36,514.475 L 101.555,514.475" style="fill:none;fill-rule:evenodd;stroke:#000000;stroke-width:2.0px;stroke-linecap:butt;stroke-linejoin:miter;stroke-opacity:1"/>
<path class="bond-8 atom-8 atom-9" d="M 92.4504,514.475 L 84.5487,514.475" style="fill:none;fill-rule:evenodd;stroke:#000000;stroke-width:2.0px;stroke-linecap:butt;stroke-linejoin:miter;stroke-opacity:1"/>
<path class="bond-8 atom-8 atom-9" d="M 84.5487,514.475 L 76.6471,514.475" style="fill:none;fill-rule:evenodd;stroke:#FF0000;stroke-width:2.0px;stroke-linecap:butt;stroke-linejoin:miter;stroke-opacity:1"/>
<path class="bond-9 atom-9 atom-10" d="M 69.9247,509.865 L 65.7394,502.615" style="fill:none;fill-rule:evenodd;stroke:#FF0000;stroke-width:2.0px;stroke-linecap:butt;stroke-linejoin:miter;stroke-opacity:1"/>
<path class="bond-9 atom-9 atom-10" d="M 65.7394,502.615 L 61.5541,495.366" style="fill:none;fill-rule:evenodd;stroke:#CCCC00;stroke-width:2.0px;stroke-linecap:butt;stroke-linejoin:miter;stroke-opacity:1"/>
<path class="bond-10 atom-10 atom-11" d="M 63.4253,491.276 L 71.6296,486.539" style="fill:none;fill-rule:evenodd;stroke:#CCCC00;stroke-width:2.0px;stroke-linecap:butt;stroke-linejoin:miter;stroke-opacity:1"/>
<path class="bond-10 atom-10 atom-11" d="M 71.6296,486.539 L 79.834,481.803" style="fill:none;fill-rule:evenodd;stroke:#FF0000;stroke-width:2.0px;stroke-linecap:butt;stroke-linejoin:miter;stroke-opacity:1"/>
<path class="bond-10 atom-10 atom-11" d="M 60.684,486.528 L 68.8883,481.791" style="fill:none;fill-rule:evenodd;stroke:#CCCC00;stroke-width:2.0px;stroke-linecap:butt;stroke-linejoin:miter;stroke-opacity:1"/>
<path class="bond-10 atom-10 atom-11" d="M 68.8883,481.791 L 77.0926,477.055" style="fill:none;fill-rule:evenodd;stroke:#FF0000;stroke-width:2.0px;stroke-linecap:butt;stroke-linejoin:miter;stroke-opacity:1"/>
<path class="bond-11 atom-10 atom-12" d="M 58.6238,484.808 L 54.4136,477.516" style="fill:none;fill-rule:evenodd;stroke:#CCCC00;stroke-width:2.0px;stroke-linecap:butt;stroke-linejoin:miter;stroke-opacity:1"/>
<path class="bond-11 atom-10 atom-12" d="M 54.4136,477.516 L 50.2034,470.224" style="fill:none;fill-rule:evenodd;stroke:#FF0000;stroke-width:2.0px;stroke-linecap:butt;stroke-linejoin:miter;stroke-opacity:1"/>
<path class="bond-11 atom-10 atom-12" d="M 53.8757,487.55 L 49.6655,480.257" style="fill:none;fill-rule:evenodd;stroke:#CCCC00;stroke-width:2.0px;stroke-linecap:butt;stroke-linejoin:miter;stroke-opacity:1"/>
<path class="bond-11 atom-10 atom-12" d="M 49.6655,480.257 L 45.4553,472.965" style="fill:none;fill-rule:evenodd;stroke:#FF0000;stroke-width:2.0px;stroke-linecap:butt;stroke-linejoin:miter;stroke-opacity:1"/>
<path class="bond-12 atom-10 atom-13" d="M 55.7057,492.568 L 45.4227,498.505" style="fill:none;fill-rule:evenodd;stroke:#CCCC00;stroke-width:2.0px;stroke-linecap:butt;stroke-linejoin:miter;stroke-opacity:1"/>
<path class="bond-12 atom-10 atom-13" d="M 45.4227,498.505 L 35.1396,504.442" style="fill:none;fill-rule:evenodd;stroke:#000000;stroke-width:2.0px;stroke-linecap:butt;stroke-linejoin:miter;stroke-opacity:1"/>
<path class="bond-13 atom-13 atom-14" d="M 35.1396,504.442 L 29.6047,494.855" style="fill:none;fill-rule:evenodd;stroke:#000000;stroke-width:2.0px;stroke-linecap:butt;stroke-linejoin:miter;stroke-opacity:1"/>
<path class="bond-13 atom-13 atom-14" d="M 29.6047,494.855 L 24.0698,485.268" style="fill:none;fill-rule:evenodd;stroke:#33CCCC;stroke-width:2.0px;stroke-linecap:butt;stroke-linejoin:miter;stroke-opacity:1"/>
<path class="bond-14 atom-13 atom-15" d="M 35.1396,504.442 L 40.6746,514.028" style="fill:none;fill-rule:evenodd;stroke:#000000;stroke-width:2.0px;stroke-linecap:butt;stroke-linejoin:miter;stroke-opacity:1"/>
<path class="bond-14 atom-13 atom-15" d="M 40.6746,514.028 L 46.2095,523.615" style="fill:none;fill-rule:evenodd;stroke:#33CCCC;stroke-width:2.0px;stroke-linecap:butt;stroke-linejoin:miter;stroke-opacity:1"/>
<path class="bond-15 atom-13 atom-16" d="M 35.1396,504.442 L 24.7661,510.431" style="fill:none;fill-rule:evenodd;stroke:#000000;stroke-width:2.0px;stroke-linecap:butt;stroke-linejoin:miter;stroke-opacity:1"/>
<path class="bond-15 atom-13 atom-16" d="M 24.7661,510.431 L 14.3926,516.42" style="fill:none;fill-rule:evenodd;stroke:#33CCCC;stroke-width:2.0px;stroke-linecap:butt;stroke-linejoin:miter;stroke-opacity:1"/>
<path class="atom-0" d="M 148.846 524.3 L 153.462 524.3 L 153.462 525.189 L 149.887 525.189 L 149.887 527.546 L 153.067 527.546 L 153.067 528.445 L 149.887 528.445 L 149.887 532.064 L 148.846 532.064 L 148.846 524.3 " fill="#33CCCC"/>
<path class="atom-2" d="M 176.259 476.819 L 180.875 476.819 L 180.875 477.707 L 177.3 477.707 L 177.3 480.065 L 180.48 480.065 L 180.48 480.964 L 177.3 480.964 L 177.3 484.583 L 176.259 484.583 L 176.259 476.819 " fill="#33CCCC"/>
<path class="atom-3" d="M 186.293 514.266 L 190.909 514.266 L 190.909 515.155 L 187.334 515.155 L 187.334 517.512 L 190.514 517.512 L 190.514 518.411 L 187.334 518.411 L 187.334 522.03 L 186.293 522.03 L 186.293 514.266 " fill="#33CCCC"/>
<path class="atom-4" d="M 138.927 493.399 Q 139.014 493.432, 139.376 493.586 Q 139.738 493.739, 140.133 493.838 Q 140.539 493.926, 140.933 493.926 Q 141.668 493.926, 142.096 493.575 Q 142.523 493.213, 142.523 492.588 Q 142.523 492.16, 142.304 491.897 Q 142.096 491.634, 141.767 491.492 Q 141.438 491.349, 140.89 491.184 Q 140.199 490.976, 139.782 490.779 Q 139.376 490.581, 139.08 490.165 Q 138.795 489.748, 138.795 489.046 Q 138.795 488.07, 139.453 487.467 Q 140.122 486.864, 141.438 486.864 Q 142.337 486.864, 143.357 487.292 L 143.105 488.136 Q 142.172 487.752, 141.471 487.752 Q 140.714 487.752, 140.297 488.07 Q 139.881 488.377, 139.892 488.915 Q 139.892 489.331, 140.1 489.584 Q 140.319 489.836, 140.626 489.978 Q 140.944 490.121, 141.471 490.285 Q 142.172 490.505, 142.589 490.724 Q 143.006 490.943, 143.302 491.393 Q 143.609 491.831, 143.609 492.588 Q 143.609 493.663, 142.885 494.244 Q 142.172 494.814, 140.977 494.814 Q 140.286 494.814, 139.76 494.66 Q 139.245 494.518, 138.631 494.266 L 138.927 493.399 " fill="#CCCC00"/>
<path class="atom-5" d="M 113.816 477.05 Q 113.816 475.186, 114.737 474.144 Q 115.658 473.103, 117.379 473.103 Q 119.101 473.103, 120.022 474.144 Q 120.943 475.186, 120.943 477.05 Q 120.943 478.936, 120.011 480.011 Q 119.079 481.075, 117.379 481.075 Q 115.669 481.075, 114.737 480.011 Q 113.816 478.947, 113.816 477.05 M 117.379 480.197 Q 118.564 480.197, 119.2 479.408 Q 119.846 478.607, 119.846 477.05 Q 119.846 475.526, 119.2 474.759 Q 118.564 473.98, 117.379 473.98 Q 116.195 473.98, 115.548 474.748 Q 114.912 475.515, 114.912 477.05 Q 114.912 478.618, 115.548 479.408 Q 116.195 480.197, 117.379 480.197 " fill="#FF0000"/>
<path class="atom-6" d="M 151.263 467.016 Q 151.263 465.152, 152.184 464.111 Q 153.105 463.069, 154.826 463.069 Q 156.548 463.069, 157.469 464.111 Q 158.39 465.152, 158.39 467.016 Q 158.39 468.902, 157.458 469.977 Q 156.526 471.041, 154.826 471.041 Q 153.116 471.041, 152.184 469.977 Q 151.263 468.913, 151.263 467.016 M 154.826 470.163 Q 156.011 470.163, 156.647 469.374 Q 157.294 468.573, 157.294 467.016 Q 157.294 465.492, 156.647 464.725 Q 156.011 463.946, 154.826 463.946 Q 153.642 463.946, 152.995 464.714 Q 152.359 465.481, 152.359 467.016 Q 152.359 468.584, 152.995 469.374 Q 153.642 470.163, 154.826 470.163 " fill="#FF0000"/>
<path class="atom-7" d="M 123.849 514.497 Q 123.849 512.633, 124.771 511.592 Q 125.692 510.55, 127.413 510.55 Q 129.135 510.55, 130.056 511.592 Q 130.977 512.633, 130.977 514.497 Q 130.977 516.383, 130.045 517.458 Q 129.113 518.522, 127.413 518.522 Q 125.703 518.522, 124.771 517.458 Q 123.849 516.394, 123.849 514.497 M 127.413 517.644 Q 128.597 517.644, 129.233 516.855 Q 129.88 516.054, 129.88 514.497 Q 129.88 512.973, 129.233 512.206 Q 128.597 511.427, 127.413 511.427 Q 126.229 511.427, 125.582 512.195 Q 124.946 512.962, 124.946 514.497 Q 124.946 516.065, 125.582 516.855 Q 126.229 517.644, 127.413 517.644 " fill="#FF0000"/>
<path class="atom-8" d="M 94.3638 510.594 L 96.9078 514.706 Q 97.16 515.111, 97.5657 515.846 Q 97.9714 516.581, 97.9934 516.625 L 97.9934 510.594 L 99.0241 510.594 L 99.0241 518.357 L 97.9605 518.357 L 95.2301 513.861 Q 94.9121 513.335, 94.5722 512.732 Q 94.2432 512.129, 94.1445 511.942 L 94.1445 518.357 L 93.1357 518.357 L 93.1357 510.594 L 94.3638 510.594 " fill="#000000"/>
<path class="atom-8" d="M 99.9671 510.594 L 100.976 510.594 L 100.976 511.548 L 99.9671 511.548 L 99.9671 510.594 M 99.9671 512.721 L 100.976 512.721 L 100.976 518.357 L 99.9671 518.357 L 99.9671 512.721 " fill="#000000"/>
<path class="atom-9" d="M 69.0231 514.497 Q 69.0231 512.633, 69.9442 511.592 Q 70.8652 510.55, 72.5868 510.55 Q 74.3083 510.55, 75.2294 511.592 Q 76.1505 512.633, 76.1505 514.497 Q 76.1505 516.383, 75.2185 517.458 Q 74.2864 518.522, 72.5868 518.522 Q 70.8762 518.522, 69.9442 517.458 Q 69.0231 516.394, 69.0231 514.497 M 72.5868 517.644 Q 73.771 517.644, 74.407 516.855 Q 75.054 516.054, 75.054 514.497 Q 75.054 512.973, 74.407 512.206 Q 73.771 511.427, 72.5868 511.427 Q 71.4025 511.427, 70.7556 512.195 Q 70.1196 512.962, 70.1196 514.497 Q 70.1196 516.065, 70.7556 516.855 Q 71.4025 517.644, 72.5868 517.644 " fill="#FF0000"/>
<path class="atom-10" d="M 56.6871 493.399 Q 56.7748 493.432, 57.1367 493.586 Q 57.4986 493.739, 57.8933 493.838 Q 58.299 493.926, 58.6938 493.926 Q 59.4284 493.926, 59.8561 493.575 Q 60.2837 493.213, 60.2837 492.588 Q 60.2837 492.16, 60.0644 491.897 Q 59.8561 491.634, 59.5271 491.492 Q 59.1982 491.349, 58.6499 491.184 Q 57.9591 490.976, 57.5424 490.779 Q 57.1367 490.581, 56.8406 490.165 Q 56.5555 489.748, 56.5555 489.046 Q 56.5555 488.07, 57.2135 487.467 Q 57.8823 486.864, 59.1982 486.864 Q 60.0973 486.864, 61.1171 487.292 L 60.8649 488.136 Q 59.9328 487.752, 59.2311 487.752 Q 58.4745 487.752, 58.0578 488.07 Q 57.6411 488.377, 57.6521 488.915 Q 57.6521 489.331, 57.8604 489.584 Q 58.0797 489.836, 58.3867 489.978 Q 58.7047 490.121, 59.2311 490.285 Q 59.9328 490.505, 60.3495 490.724 Q 60.7662 490.943, 61.0623 491.393 Q 61.3693 491.831, 61.3693 492.588 Q 61.3693 493.663, 60.6456 494.244 Q 59.9328 494.814, 58.7376 494.814 Q 58.0468 494.814, 57.5205 494.66 Q 57.0051 494.518, 56.3911 494.266 L 56.6871 493.399 " fill="#CCCC00"/>
<path class="atom-11" d="M 79.057 477.05 Q 79.057 475.186, 79.9781 474.144 Q 80.8992 473.103, 82.6207 473.103 Q 84.3423 473.103, 85.2634 474.144 Q 86.1844 475.186, 86.1844 477.05 Q 86.1844 478.936, 85.2524 480.011 Q 84.3203 481.075, 82.6207 481.075 Q 80.9101 481.075, 79.9781 480.011 Q 79.057 478.947, 79.057 477.05 M 82.6207 480.197 Q 83.805 480.197, 84.441 479.408 Q 85.0879 478.607, 85.0879 477.05 Q 85.0879 475.526, 84.441 474.759 Q 83.805 473.98, 82.6207 473.98 Q 81.4365 473.98, 80.7895 474.748 Q 80.1535 475.515, 80.1535 477.05 Q 80.1535 478.618, 80.7895 479.408 Q 81.4365 480.197, 82.6207 480.197 " fill="#FF0000"/>
<path class="atom-12" d="M 41.6099 467.016 Q 41.6099 465.152, 42.5309 464.111 Q 43.452 463.069, 45.1736 463.069 Q 46.8951 463.069, 47.8162 464.111 Q 48.7373 465.152, 48.7373 467.016 Q 48.7373 468.902, 47.8052 469.977 Q 46.8732 471.041, 45.1736 471.041 Q 43.463 471.041, 42.5309 469.977 Q 41.6099 468.913, 41.6099 467.016 M 45.1736 470.163 Q 46.3578 470.163, 46.9938 469.374 Q 47.6408 468.573, 47.6408 467.016 Q 47.6408 465.492, 46.9938 464.725 Q 46.3578 463.946, 45.1736 463.946 Q 43.9893 463.946, 43.3424 464.714 Q 42.7064 465.481, 42.7064 467.016 Q 42.7064 468.584, 43.3424 469.374 Q 43.9893 470.163, 45.1736 470.163 " fill="#FF0000"/>
<path class="atom-14" d="M 19.1248 476.819 L 23.7412 476.819 L 23.7412 477.707 L 20.1665 477.707 L 20.1665 480.065 L 23.3465 480.065 L 23.3465 480.964 L 20.1665 480.964 L 20.1665 484.583 L 19.1248 484.583 L 19.1248 476.819 " fill="#33CCCC"/>
<path class="atom-15" d="M 46.5381 524.3 L 51.1544 524.3 L 51.1544 525.189 L 47.5798 525.189 L 47.5798 527.546 L 50.7597 527.546 L 50.7597 528.445 L 47.5798 528.445 L 47.5798 532.064 L 46.5381 532.064 L 46.5381 524.3 " fill="#33CCCC"/>
<path class="atom-16" d="M 9.09091 514.266 L 13.7073 514.266 L 13.7073 515.155 L 10.1326 515.155 L 10.1326 517.512 L 13.3125 517.512 L 13.3125 518.411 L 10.1326 518.411 L 10.1326 522.03 L 9.09091 522.03 L 9.09091 514.266 " fill="#33CCCC"/>
<path class="bond-0 atom-0 atom-1" d="M 348.249,501.066 L 337.338,497.521" style="fill:none;fill-rule:evenodd;stroke:#000000;stroke-width:2.0px;stroke-linecap:butt;stroke-linejoin:miter;stroke-opacity:1"/>
<path class="bond-0 atom-0 atom-1" d="M 337.338,497.521 L 326.427,493.975" style="fill:none;fill-rule:evenodd;stroke:#FF0000;stroke-width:2.0px;stroke-linecap:butt;stroke-linejoin:miter;stroke-opacity:1"/>
<path class="bond-1 atom-1 atom-2" d="M 320.68,487.984 L 317.193,477.253" style="fill:none;fill-rule:evenodd;stroke:#FF0000;stroke-width:2.0px;stroke-linecap:butt;stroke-linejoin:miter;stroke-opacity:1"/>
<path class="bond-1 atom-1 atom-2" d="M 317.193,477.253 L 313.707,466.523" style="fill:none;fill-rule:evenodd;stroke:#000000;stroke-width:2.0px;stroke-linecap:butt;stroke-linejoin:miter;stroke-opacity:1"/>
<path class="bond-8 atom-1 atom-5" d="M 317.929,495.682 L 309.729,501.639" style="fill:none;fill-rule:evenodd;stroke:#FF0000;stroke-width:2.0px;stroke-linecap:butt;stroke-linejoin:miter;stroke-opacity:1"/>
<path class="bond-8 atom-1 atom-5" d="M 309.729,501.639 L 303.17,506.405" style="fill:none;fill-rule:evenodd;stroke:#000000;stroke-width:2.0px;stroke-linecap:butt;stroke-linejoin:miter;stroke-opacity:1"/>
<path class="bond-8 atom-1 atom-5" d="M 304.783,506.235 L 303.17,506.405 L 303.829,504.923 Z" style="fill:#000000;fill-rule:evenodd;fill-opacity:1;stroke:#000000;stroke-width:2.0px;stroke-linecap:butt;stroke-linejoin:miter;stroke-opacity:1;"/>
<path class="bond-2 atom-2 atom-3" d="M 313.707,466.523 L 286.293,466.523" style="fill:none;fill-rule:evenodd;stroke:#000000;stroke-width:2.0px;stroke-linecap:butt;stroke-linejoin:miter;stroke-opacity:1"/>
<path class="bond-3 atom-3 atom-4" d="M 286.293,466.523 L 282.807,477.253" style="fill:none;fill-rule:evenodd;stroke:#000000;stroke-width:2.0px;stroke-linecap:butt;stroke-linejoin:miter;stroke-opacity:1"/>
<path class="bond-3 atom-3 atom-4" d="M 282.807,477.253 L 279.32,487.984" style="fill:none;fill-rule:evenodd;stroke:#FF0000;stroke-width:2.0px;stroke-linecap:butt;stroke-linejoin:miter;stroke-opacity:1"/>
<path class="bond-4 atom-4 atom-5" d="M 282.071,495.682 L 287.983,499.977" style="fill:none;fill-rule:evenodd;stroke:#FF0000;stroke-width:2.0px;stroke-linecap:butt;stroke-linejoin:miter;stroke-opacity:1"/>
<path class="bond-4 atom-4 atom-5" d="M 287.983,499.977 L 292.712,503.413" style="fill:none;fill-rule:evenodd;stroke:#000000;stroke-width:2.0px;stroke-linecap:butt;stroke-linejoin:miter;stroke-opacity:1"/>
<path class="bond-4 atom-4 atom-5" d="M 292.237,502.345 L 292.712,503.413 L 291.55,503.291 Z" style="fill:#000000;fill-rule:evenodd;fill-opacity:1;stroke:#000000;stroke-width:2.0px;stroke-linecap:butt;stroke-linejoin:miter;stroke-opacity:1;"/>
<path class="bond-7 atom-4 atom-8" d="M 273.573,493.975 L 262.662,497.521" style="fill:none;fill-rule:evenodd;stroke:#FF0000;stroke-width:2.0px;stroke-linecap:butt;stroke-linejoin:miter;stroke-opacity:1"/>
<path class="bond-7 atom-4 atom-8" d="M 262.662,497.521 L 251.751,501.066" style="fill:none;fill-rule:evenodd;stroke:#000000;stroke-width:2.0px;stroke-linecap:butt;stroke-linejoin:miter;stroke-opacity:1"/>
<path class="bond-5 atom-5 atom-6" d="M 301.661,510.553 L 308.372,518.006" style="fill:none;fill-rule:evenodd;stroke:#000000;stroke-width:2.0px;stroke-linecap:butt;stroke-linejoin:miter;stroke-opacity:1"/>
<path class="bond-5 atom-5 atom-6" d="M 308.372,518.006 L 315.083,525.459" style="fill:none;fill-rule:evenodd;stroke:#7F4C19;stroke-width:2.0px;stroke-linecap:butt;stroke-linejoin:miter;stroke-opacity:1"/>
<path class="bond-6 atom-5 atom-7" d="M 295.888,513.275 L 289.846,519.985" style="fill:none;fill-rule:evenodd;stroke:#000000;stroke-width:2.0px;stroke-linecap:butt;stroke-linejoin:miter;stroke-opacity:1"/>
<path class="bond-6 atom-5 atom-7" d="M 289.846,519.985 L 283.804,526.695" style="fill:none;fill-rule:evenodd;stroke:#7F4C19;stroke-width:2.0px;stroke-linecap:butt;stroke-linejoin:miter;stroke-opacity:1"/>
<path class="atom-1" d="M 318.614 492.617 Q 318.614 490.752, 319.535 489.711 Q 320.456 488.669, 322.178 488.669 Q 323.899 488.669, 324.82 489.711 Q 325.741 490.752, 325.741 492.617 Q 325.741 494.503, 324.809 495.577 Q 323.877 496.641, 322.178 496.641 Q 320.467 496.641, 319.535 495.577 Q 318.614 494.514, 318.614 492.617 M 322.178 495.764 Q 323.362 495.764, 323.998 494.974 Q 324.645 494.174, 324.645 492.617 Q 324.645 491.092, 323.998 490.325 Q 323.362 489.546, 322.178 489.546 Q 320.994 489.546, 320.347 490.314 Q 319.711 491.081, 319.711 492.617 Q 319.711 494.185, 320.347 494.974 Q 320.994 495.764, 322.178 495.764 " fill="#FF0000"/>
<path class="atom-4" d="M 274.259 492.617 Q 274.259 490.752, 275.18 489.711 Q 276.101 488.669, 277.822 488.669 Q 279.544 488.669, 280.465 489.711 Q 281.386 490.752, 281.386 492.617 Q 281.386 494.503, 280.454 495.577 Q 279.522 496.641, 277.822 496.641 Q 276.112 496.641, 275.18 495.577 Q 274.259 494.514, 274.259 492.617 M 277.822 495.764 Q 279.006 495.764, 279.642 494.974 Q 280.289 494.174, 280.289 492.617 Q 280.289 491.092, 279.642 490.325 Q 279.006 489.546, 277.822 489.546 Q 276.638 489.546, 275.991 490.314 Q 275.355 491.081, 275.355 492.617 Q 275.355 494.185, 275.991 494.974 Q 276.638 495.764, 277.822 495.764 " fill="#FF0000"/>
<path class="atom-5" d="M 294.364 504.826 L 296.908 508.938 Q 297.16 509.344, 297.566 510.078 Q 297.971 510.813, 297.993 510.857 L 297.993 504.826 L 299.024 504.826 L 299.024 512.589 L 297.96 512.589 L 295.23 508.094 Q 294.912 507.567, 294.572 506.964 Q 294.243 506.361, 294.145 506.175 L 294.145 512.589 L 293.136 512.589 L 293.136 504.826 L 294.364 504.826 " fill="#000000"/>
<path class="atom-5" d="M 299.967 504.826 L 300.976 504.826 L 300.976 505.78 L 299.967 505.78 L 299.967 504.826 M 299.967 506.953 L 300.976 506.953 L 300.976 512.589 L 299.967 512.589 L 299.967 506.953 " fill="#000000"/>
<path class="atom-6" d="M 319.478 528.882 Q 320.224 529.091, 320.596 529.551 Q 320.98 530.001, 320.98 530.67 Q 320.98 531.744, 320.289 532.358 Q 319.61 532.961, 318.316 532.961 L 315.706 532.961 L 315.706 525.198 L 317.998 525.198 Q 319.324 525.198, 319.993 525.735 Q 320.662 526.273, 320.662 527.259 Q 320.662 528.433, 319.478 528.882 M 316.748 526.075 L 316.748 528.51 L 317.998 528.51 Q 318.765 528.51, 319.16 528.202 Q 319.566 527.885, 319.566 527.259 Q 319.566 526.075, 317.998 526.075 L 316.748 526.075 M 318.316 532.084 Q 319.072 532.084, 319.478 531.722 Q 319.884 531.36, 319.884 530.67 Q 319.884 530.034, 319.434 529.716 Q 318.995 529.387, 318.151 529.387 L 316.748 529.387 L 316.748 532.084 L 318.316 532.084 " fill="#7F4C19"/>
<path class="atom-6" d="M 322.746 527.325 L 322.866 528.104 Q 323.458 527.227, 324.423 527.227 Q 324.73 527.227, 325.147 527.336 L 324.983 528.257 Q 324.511 528.148, 324.248 528.148 Q 323.787 528.148, 323.48 528.334 Q 323.184 528.51, 322.943 528.937 L 322.943 532.961 L 321.912 532.961 L 321.912 527.325 L 322.746 527.325 " fill="#7F4C19"/>
<path class="atom-7" d="M 277.605 528.882 Q 278.351 529.091, 278.724 529.551 Q 279.108 530.001, 279.108 530.67 Q 279.108 531.744, 278.417 532.358 Q 277.737 532.961, 276.443 532.961 L 273.833 532.961 L 273.833 525.198 L 276.125 525.198 Q 277.452 525.198, 278.121 525.735 Q 278.79 526.273, 278.79 527.259 Q 278.79 528.433, 277.605 528.882 M 274.875 526.075 L 274.875 528.51 L 276.125 528.51 Q 276.893 528.51, 277.287 528.202 Q 277.693 527.885, 277.693 527.259 Q 277.693 526.075, 276.125 526.075 L 274.875 526.075 M 276.443 532.084 Q 277.2 532.084, 277.605 531.722 Q 278.011 531.36, 278.011 530.67 Q 278.011 530.034, 277.561 529.716 Q 277.123 529.387, 276.279 529.387 L 274.875 529.387 L 274.875 532.084 L 276.443 532.084 " fill="#7F4C19"/>
<path class="atom-7" d="M 280.873 527.325 L 280.994 528.104 Q 281.586 527.227, 282.551 527.227 Q 282.858 527.227, 283.274 527.336 L 283.11 528.257 Q 282.638 528.148, 282.375 528.148 Q 281.915 528.148, 281.608 528.334 Q 281.312 528.51, 281.07 528.937 L 281.07 532.961 L 280.04 532.961 L 280.04 527.325 L 280.873 527.325 " fill="#7F4C19"/>
<path class="bond-0 atom-0 atom-1" d="M 524.091,498.582 L 512.834,498.582" style="fill:none;fill-rule:evenodd;stroke:#7F4C19;stroke-width:2.0px;stroke-linecap:butt;stroke-linejoin:miter;stroke-opacity:1"/>
<path class="bond-0 atom-0 atom-1" d="M 512.834,498.582 L 501.578,498.582" style="fill:none;fill-rule:evenodd;stroke:#000000;stroke-width:2.0px;stroke-linecap:butt;stroke-linejoin:miter;stroke-opacity:1"/>
<path class="bond-1 atom-1 atom-2" d="M 492.45,498.582 L 483.576,498.582" style="fill:none;fill-rule:evenodd;stroke:#000000;stroke-width:2.0px;stroke-linecap:butt;stroke-linejoin:miter;stroke-opacity:1"/>
<path class="bond-1 atom-1 atom-2" d="M 483.576,498.582 L 474.701,498.582" style="fill:none;fill-rule:evenodd;stroke:#7F4C19;stroke-width:2.0px;stroke-linecap:butt;stroke-linejoin:miter;stroke-opacity:1"/>
<path class="atom-0" d="M 528.548 498.384 Q 529.294 498.593, 529.667 499.053 Q 530.05 499.503, 530.05 500.172 Q 530.05 501.246, 529.36 501.86 Q 528.68 502.463, 527.386 502.463 L 524.776 502.463 L 524.776 494.7 L 527.068 494.7 Q 528.395 494.7, 529.063 495.237 Q 529.732 495.774, 529.732 496.761 Q 529.732 497.935, 528.548 498.384 M 525.818 495.577 L 525.818 498.011 L 527.068 498.011 Q 527.835 498.011, 528.23 497.704 Q 528.636 497.386, 528.636 496.761 Q 528.636 495.577, 527.068 495.577 L 525.818 495.577 M 527.386 501.586 Q 528.142 501.586, 528.548 501.224 Q 528.954 500.862, 528.954 500.172 Q 528.954 499.536, 528.504 499.218 Q 528.066 498.889, 527.221 498.889 L 525.818 498.889 L 525.818 501.586 L 527.386 501.586 " fill="#7F4C19"/>
<path class="atom-0" d="M 531.816 496.827 L 531.936 497.606 Q 532.529 496.728, 533.493 496.728 Q 533.8 496.728, 534.217 496.838 L 534.053 497.759 Q 533.581 497.65, 533.318 497.65 Q 532.857 497.65, 532.55 497.836 Q 532.254 498.011, 532.013 498.439 L 532.013 502.463 L 530.982 502.463 L 530.982 496.827 L 531.816 496.827 " fill="#7F4C19"/>
<path class="atom-1" d="M 494.364 494.7 L 496.908 498.812 Q 497.16 499.218, 497.566 499.952 Q 497.971 500.687, 497.993 500.731 L 497.993 494.7 L 499.024 494.7 L 499.024 502.463 L 497.96 502.463 L 495.23 497.968 Q 494.912 497.441, 494.572 496.838 Q 494.243 496.235, 494.145 496.049 L 494.145 502.463 L 493.136 502.463 L 493.136 494.7 L 494.364 494.7 " fill="#000000"/>
<path class="atom-1" d="M 499.967 494.7 L 500.976 494.7 L 500.976 495.654 L 499.967 495.654 L 499.967 494.7 M 499.967 496.827 L 500.976 496.827 L 500.976 502.463 L 499.967 502.463 L 499.967 496.827 " fill="#000000"/>
<path class="atom-2" d="M 468.535 498.384 Q 469.281 498.593, 469.654 499.053 Q 470.037 499.503, 470.037 500.172 Q 470.037 501.246, 469.347 501.86 Q 468.667 502.463, 467.373 502.463 L 464.763 502.463 L 464.763 494.7 L 467.055 494.7 Q 468.382 494.7, 469.05 495.237 Q 469.719 495.774, 469.719 496.761 Q 469.719 497.935, 468.535 498.384 M 465.805 495.577 L 465.805 498.011 L 467.055 498.011 Q 467.822 498.011, 468.217 497.704 Q 468.623 497.386, 468.623 496.761 Q 468.623 495.577, 467.055 495.577 L 465.805 495.577 M 467.373 501.586 Q 468.129 501.586, 468.535 501.224 Q 468.941 500.862, 468.941 500.172 Q 468.941 499.536, 468.491 499.218 Q 468.053 498.889, 467.208 498.889 L 465.805 498.889 L 465.805 501.586 L 467.373 501.586 " fill="#7F4C19"/>
<path class="atom-2" d="M 471.803 496.827 L 471.923 497.606 Q 472.516 496.728, 473.48 496.728 Q 473.787 496.728, 474.204 496.838 L 474.04 497.759 Q 473.568 497.65, 473.305 497.65 Q 472.844 497.65, 472.537 497.836 Q 472.241 498.011, 472 498.439 L 472 502.463 L 470.969 502.463 L 470.969 496.827 L 471.803 496.827 " fill="#7F4C19"/>
</svg>